<svg width="341" height="299" viewBox="0 0 341 299" fill="none" xmlns="http://www.w3.org/2000/svg">
<path d="M169.708 201.663C169.858 201.613 170.007 201.55 170.157 201.475C170.407 201.325 170.545 201.099 170.57 200.798C174.644 156.573 180.568 120.333 188.342 92.0779C195.741 65.2519 203.14 39.6921 210.539 15.3983C212.039 10.5471 214.551 5.77107 217.138 1.40872C217.43 0.927535 217.854 0.540819 218.359 0.29475C218.864 0.0486811 219.429 -0.0463294 219.987 0.0210909C220.544 0.0885113 221.07 0.315503 221.503 0.67494C221.935 1.03438 222.255 1.51108 222.425 2.04806C223.45 5.25714 223.974 8.5289 223.999 11.8633C224.124 58.4953 222.225 103.711 218.3 147.51C216.95 162.477 214.651 177.996 211.401 194.067C209.852 201.763 210.939 202.165 214.663 195.27C222.237 181.18 229.811 167.316 237.385 153.677C261.781 109.753 291.452 68.9625 326.397 31.3059C329.346 28.1469 332.658 25.6649 336.333 23.8598C336.85 23.6001 337.428 23.4849 338.005 23.5262C338.582 23.5675 339.138 23.7638 339.613 24.0945C340.089 24.4253 340.467 24.8783 340.707 25.4061C340.948 25.9338 341.043 26.5168 340.982 27.0939C340.157 35.2169 338.757 42.5377 336.783 49.0561C326.734 82.1999 312.924 113.238 295.351 142.17C275.329 175.138 256.057 205.612 237.535 233.591C236.11 235.747 236.598 236.361 238.997 235.434C258.594 227.862 281.216 220.755 306.862 214.111C312.261 212.707 317.535 212.481 322.685 213.434C323.161 213.524 323.603 213.743 323.964 214.066C324.325 214.39 324.592 214.807 324.735 215.271C324.877 215.735 324.891 216.23 324.774 216.701C324.658 217.173 324.415 217.603 324.072 217.947C303.1 238.705 277.629 256.268 247.658 270.633C223.912 281.99 204.102 290.703 188.23 296.77C172.595 302.749 151.86 295.491 136.488 289.249C83.3954 267.775 36.34 226.408 2.55752 181.017C-1.94181 174.95 -0.504546 172.744 6.86935 174.398C25.2416 178.498 48.8256 194.856 66.598 207.078C97.7433 228.489 126.439 250.163 152.685 272.1C157.559 276.212 158.584 275.409 155.76 269.693C141.737 241.564 125.802 209.109 121.077 177.144C116.078 143.072 114.591 109.226 116.615 75.6063C116.84 71.8205 117.253 68.0599 117.853 64.3243C119.228 55.4492 122.215 54.8726 126.814 62.5944C138.1 81.6985 145.411 104.864 152.535 127.428C160.134 151.521 165.721 176.191 169.295 201.437C169.345 201.688 169.483 201.763 169.708 201.663Z" fill="#02553D"/>
</svg>
