<svg
      preserveAspectRatio="xMidYMid meet"
      data-bbox="-61 2 356 238.742"
      xmlns="http://www.w3.org/2000/svg"
      viewBox="0 0 232 224"
      height="224"
      width="232"
      data-type="ugc"
      role="presentation"
      aria-hidden="true"
      aria-label=""
      {...props}
    >
      <g>
        <g clipPath="url(#03919e19-ed78-471c-8cb1-29786e8ca152_comp-lcus63le)">
          <path
            fill="#8C8CB4"
            d="M-6 151.049s18.5-57 21-64 6.045-4.127 7-1.5c.93 2.558 8.304 23.822 11 33 3.1 10.557 1.5 9 1.5 9l146-7.5s1.152-6.057 5.5-22c3-11 4.5-5.5 6 0 2.731 10.015 5 25.5 7.5 25.5 2.108 0 6.036-16.48 10.178-30.533.77-2.613 1.547-5.143 2.322-7.467 2.5-7.5 6.5 10.451 8 16.451 2.839 11.355 20.5 44.049 20.5 44.049s1.465 52.681-18 48c-16.751-4.028-13.5-42-13.5-42l-49.5-24.5-125 4-10.5 21-7 26-13 8-10-35.5Z"
          ></path>
          <path
            fill="#C6C3E5"
            d="m34.5 127.549 146-7.5s1.152-6.057 5.5-22c3-11 4.5-5.5 6 0 2.731 10.015 5 25.5 7.5 25.5 2.108 0 6.036-16.48 10.178-30.533 0 0-10.178-24.467-17.678-43.967-2.664-6.925-7.516-6.26-11.5 0-7 11-16.5 38-21 38s-35-46.5-44-65c-13.633-28.023-16-23.5-28.5 0-20.82 39.144-54 96.5-54 96.5 3.1 10.557 1.5 9 1.5 9Z"
          ></path>
          <path
            fill="#54506F"
            d="M107.329 122.264c-.84 1.018-.607 11.706.275 12.688 1.032 1.148 16.956 1.166 18.3.021 1.116-.949 1.557-11.398.534-12.638-.813-.986-18.3-1.052-19.109-.071Zm135.672 8.788c-1.5 3.003-14.88 47.366-17.843 57.142-1.699 5.599-3.129 4.062-3.129 4.062s-4.387-14.315-7.243-23.473c-1.937-6.213-4.544-14.938-4.993-15.9-.653-1.393-7.45-5.218-8.782-5.218-.485 0-.569 8.602-.145 15.038l.274 4.16h2.046c3.2 0 3.477.663 3.372 8.106-.074 5.428-.389 6.009-3.412 6.302l-2.135.206v12.317c0 6.775.144 12.314.319 12.309.175-.004.795-.385 1.378-.844.583-.459 1.185-.838 1.336-.844.152-.004 1.965-.791 4.028-1.749 5.322-2.467 6.032-2.74 9.898-3.806 1.05-.29 2.386-.694 2.969-.902 7.723-2.737 28.5-3.044 38.581-.568 1.514.372 3.282.781 3.926.909.645.128 1.276.402 1.403.61.127.208.698.377 1.268.377.569 0 3.386 1.016 6.26 2.258 5.215 2.253 5.225 2.255 5.667 1.314-1.543-6.306-8.11-25.79-13.043-42.394-2.5-8.415-4.5-2.915-4.5-.412-3.245 18.388-10.804-24.181-14.5-29.753-.5-.753-1.5-2.25-3 .753Zm-210 75c.44 0 .12-2.433.12-12.259v-12.319c-.115-.425 0-17.609 0-24.722 0-4.998-.048-9.087-.107-9.085L33 206.052Zm23.744-58.32c-.909.699-.905.639-.807 10.919l.077 8.212H68.31v-8.699c0-10.985.324-10.421-6.147-10.764-3.578-.191-4.838-.113-5.417.332Zm111.721-.18c-2.974.268-3.104.733-2.97 10.61l.114 8.488 6.01.117 6.01.118.146-8.65c.202-11.847.446-11.567-9.31-10.683Zm-96.256.625c-.363.366-.508 3.1-.508 9.599v9.087h11.87v-8.774c0-5.233-.176-9.107-.439-9.598-.53-1.001-9.971-1.27-10.923-.314Zm31.386-.013c-.38.382-.521 2.996-.521 9.623v9.1l6.041-.12 6.043-.117.104-8.32c.139-11.034 1.289-10.511-5.263-10.665-3.594-.084-6.035.129-6.404.499Zm15.379.507c-.546.838-.635 2.419-.541 9.491l.116 8.488h12.296l.114-8.216c.095-6.745-.001-8.445-.541-9.493l-.655-1.276h-5.067c-4.855 0-5.095.041-5.722 1.006Zm31.681-.507c-.378.382-.521 2.996-.521 9.623v9.1l6.043-.12 6.041-.117.105-8.32c.138-11.034.491-10.418-6.061-10.571-3.595-.084-5.238.035-5.607.405Zm-93.401 40.125c-1.53.571-1.693 1.87-1.353 10.784l.325 8.533 5.088.123c7.774.189 6.994 1.217 6.994-9.238 0-10.901.33-10.321-5.922-10.433-2.37-.042-4.679.062-5.132.231Zm16.035-.146c-1.97.606-2.037.983-1.801 10.197.123 4.799.327 8.894.454 9.101.303.492 11.084.494 11.385.004.126-.204.326-4.239.445-8.963.226-9.059.003-10.213-2.002-10.315-2.71-.138-8.061-.152-8.48-.024Zm45.71.024c-1.455.489-.707 1.205-.57 10.906l.12 8.533 5.666.119c7.424.156 6.841.953 6.841-9.344 0-8.897-.265-10.113-2.226-10.214-3.83-.195-8.988-.283-9.831 0Zm32.722-.024c-1.971.608-1.976.987-1.721 10.238.132 4.815.278 8.9.395 9.09.353.575 10.942.425 11.527-.163.905-.911.697-17.09-.233-18.188-.706-.832-8.093-1.555-9.968-.977Zm15.156.194c-1.453.489-1.523 1.037-1.388 10.736l.12 8.533 5.512.106c3.031.06 5.722-.037 5.979-.213.915-.628 1.175-17.316.287-18.365-.829-.978-8.291-1.545-10.51-.797Zm-63.602.881c-.582.894-.623 2.143-.328 9.706l.339 8.682 5.452.119c3.658.081 5.648-.041 6.043-.372.913-.763.85-16.886-.072-18.21-1.055-1.516-10.439-1.453-11.434.075Z"
            clipRule="evenodd"
            fillRule="evenodd"
          ></path>
          <path fill="#A45E46" d="M63 147v20h-1v-20h1z"></path>
          <path fill="#A45E46" d="M63 188v20h-1v-20h1z"></path>
          <path fill="#A45E46" d="M78 188v20h-1v-20h1z"></path>
          <path fill="#A45E46" d="M110 188v20h-1v-20h1z"></path>
          <path fill="#A45E46" d="M125 188v20h-1v-20h1z"></path>
          <path fill="#A45E46" d="M157 188v20h-1v-20h1z"></path>
          <path fill="#A45E46" d="M172 188v20h-1v-20h1z"></path>
          <path fill="#A45E46" d="M78 147v20h-1v-20h1z"></path>
          <path fill="#A45E46" d="M110 147v20h-1v-20h1z"></path>
          <path fill="#A45E46" d="M125 147v20h-1v-20h1z"></path>
          <path fill="#A45E46" d="M157 147v20h-1v-20h1z"></path>
          <path fill="#A45E46" d="M118 119v20h-1v-20h1z"></path>
          <path fill="#A45E46" d="M172 147v20h-1v-20h1z"></path>
          <path
            fill="#A45E46"
            d="M70.166 157.098 53 157l.005-1 17.167.098-.006 1z"
          ></path>
          <path
            fill="#A45E46"
            d="M70.166 198.098 53 198l.005-1 17.167.098-.006 1z"
          ></path>
          <path
            fill="#A45E46"
            d="M85.166 198.098 68 198l.005-1 17.167.098-.006 1z"
          ></path>
          <path
            fill="#A45E46"
            d="M117.166 198.098 100 198l.005-1 17.167.098-.006 1z"
          ></path>
          <path
            fill="#A45E46"
            d="M132.166 198.098 115 198l.005-1 17.167.098-.006 1z"
          ></path>
          <path
            fill="#A45E46"
            d="M164.166 198.098 147 198l.005-1 17.167.098-.006 1z"
          ></path>
          <path
            fill="#A45E46"
            d="M179.166 198.098 162 198l.005-1 17.167.098-.006 1z"
          ></path>
          <path
            fill="#A45E46"
            d="M85.166 157.098 68 157l.005-1 17.167.098-.006 1z"
          ></path>
          <path
            fill="#A45E46"
            d="M117.166 157.098 100 157l.005-1 17.167.098-.006 1z"
          ></path>
          <path
            fill="#A45E46"
            d="M132.166 157.098 115 157l.005-1 17.167.098-.006 1z"
          ></path>
          <path
            fill="#A45E46"
            d="M164.166 157.098 147 157l.005-1 17.167.098-.006 1z"
          ></path>
          <path
            fill="#A45E46"
            d="m127.631 129.112-21.378-.122.005-1 21.379.122-.006 1z"
          ></path>
          <path
            fill="#A45E46"
            d="M179.166 157.098 162 157l.005-1 17.167.098-.006 1z"
          ></path>
          <path
            fill="#E3E1F9"
            d="M103 13.05C100.967 30.882 87.963 45.246 82.5 63c-6 19.5 22.304 5.26 19.5 14-8.5 26.5-19.5 41.049-19.5 41.049l-56.5 29s3.179-17.879 6.5-29c3.321-11.12 76.388-156.642 70.5-105Z"
          ></path>
          <path
            fill="#E49963"
            d="M58.877 93.09c-.408.24-.743.632-.743.871 0 .24.3.135.666-.234.735-.74 20.595-1.023 21.711-.312.843.539.54 12.431-.33 12.92-.35.196-3.784 1.874-7.632 3.728s-8.41 4.066-10.139 4.914c-1.729.849-3.398 1.544-3.71 1.544-.31 0-.566.188-.566.416 0 .643.424.455 16.641-7.39l6.678-3.229v-6.403c0-5.893-.065-6.437-.82-6.843-1.092-.588-20.751-.571-21.756.018Zm51.617 16.385c-2.564 1.25-7.238 3.513-10.387 5.029a4306.586 4306.586 0 0 0-11.447 5.538 1720.646 1720.646 0 0 1-9.751 4.701 1838.34 1838.34 0 0 0-11.024 5.317c-3.847 1.87-8.521 4.131-10.386 5.025-1.867.895-7.398 3.573-12.296 5.954-4.896 2.38-9.522 4.603-10.28 4.941-.759.337-1.378.764-1.378.95 0 .187.333.161.74-.055 2.278-1.205 9.096-4.33 9.446-4.33a.42.42 0 0 0 .412-.426c0-.235.192-.426.428-.426.397 0 2.999-1.218 15.047-7.043 2.565-1.24 6.953-3.352 9.751-4.696a2828.82 2828.82 0 0 0 11.447-5.541 2364.63 2364.63 0 0 1 11.024-5.336c2.565-1.23 7.334-3.536 10.6-5.123 3.264-1.587 7.365-3.539 9.114-4.337l4.24-1.938c.902-.413.934-.486.212-.482-.466.003-2.947 1.027-5.512 2.278Zm6.995-2.026c.754.291 8.535 4.009 16.536 7.899 3.148 1.531 7.536 3.645 9.751 4.699 3.822 1.817 12.511 6.018 21.834 10.554a1911.47 1911.47 0 0 0 9.327 4.498c2.799 1.338 7.95 3.826 11.447 5.525 3.499 1.701 7.887 3.815 9.752 4.695 1.865.883 3.535 1.687 3.71 1.788.175.099.318-.022.318-.27 0-.249-.168-.452-.373-.452s-4.068-1.799-8.585-3.998c-16.67-8.115-20.158-9.802-23.476-11.361a976.889 976.889 0 0 1-9.116-4.375 4601.874 4601.874 0 0 0-11.022-5.342c-2.915-1.408-8.352-4.038-12.084-5.843-3.731-1.806-7.642-3.678-8.691-4.16a288.087 288.087 0 0 1-5.259-2.523c-1.842-.907-3.655-1.633-4.028-1.614-.576.028-.581.07-.041.28Zm-14.221 20.591a887.14 887.14 0 0 1-7.63 3.712c-3.022 1.455-9.5 4.592-14.397 6.97-10.483 5.093-13.724 6.624-14.733 6.961-.871.291-.999 1.128-.171 1.128 2.212 0 2.421.996 2.3 10.936l-.115 9.329H55.378l-.212-7.679c-.13-4.705-.375-7.675-.635-7.667-.233.007-3.094 1.321-6.36 2.92-3.264 1.601-7.89 3.866-10.28 5.037l-4.346 2.125v2.297c0 2.618-.564 3.181-3.183 3.181-2.54 0-2.753.52-2.753 6.728 0 4.798.1 5.603.775 6.217.716.652 7.472.706 88.586.706h87.809l.66-.947c.509-.732.66-2.13.66-6.121 0-5.812-.343-6.583-2.923-6.583-2.357 0-3.012-.628-3.019-2.895-.009-2.592.008-2.575-4.233-4.656-6.261-3.074-17.045-8.235-17.207-8.235-.086 0-.209 3.504-.273 7.786l-.115 7.786-5.936.123c-8.76.181-7.842 1.262-7.842-9.241 0-9.514.403-11.147 2.76-11.147 1.193 0 .247-.798-2.462-2.081-1.448-.685-5.874-2.817-9.838-4.739a5176.77 5176.77 0 0 0-11.023-5.328c-2.098-1.01-6.488-3.15-9.752-4.753a3161.495 3161.495 0 0 0-6.253-3.071c-.175-.082-.317 1.603-.317 3.745 0 6.027.068 5.988-10.812 5.988-10.706 0-10.807-.051-10.817-5.419-.009-4.265-.147-4.42-2.769-3.113Zm-19.704 19.713c.833.901.868 1.362.758 10.134l-.113 9.189-6.303.119c-8.165.153-7.476 1.027-7.476-9.494 0-11.248-.236-10.89 7.17-10.89 4.706 0 5.157.071 5.964.942Zm31.326-.138c.9.786.918 1.017.806 10.132l-.114 9.329-6.302.119c-8.146.152-7.477.966-7.477-9.081 0-11.419-.085-11.286 7.248-11.296 4.214-.005 5.049.108 5.839.797Zm15.735.138c.831.901.867 1.362.758 10.134l-.114 9.189-5.936.123c-8.747.181-7.844 1.206-7.844-8.898 0-11.814-.259-11.405 7.298-11.456 4.598-.031 5.029.036 5.838.908Zm31.373 0c.833.901.867 1.362.758 10.134l-.114 9.189-6.356.119c-8.045.15-7.422.938-7.422-9.394 0-11.24-.224-10.905 7.296-10.956 4.599-.031 5.029.036 5.838.908ZM68.96 197.229c-.127.546-.277 3.198-.335 5.897l-.103 4.906-6.09.119c-7.631.148-7.209.495-7.359-6.026l-.118-5.186-10.706-.113-10.704-.114-.064 4.7c-.035 2.585-.083 4.941-.106 5.233-.03.378 1.193.611 4.197.802 8.135.511 15.768 2.933 21.45 6.803 3.364 2.293 9.147 7.879 9.462 9.142.287 1.151 1.097 1.469 1.097.432 0-.35-1.62-2.289-3.603-4.31-1.982-2.022-3.604-3.752-3.604-3.846 0-.094 5.82-.169 12.93-.169h12.933v8.959h9.984l-.165-4.484-.165-4.485 18.809.111 18.808.112-.024 4.373-.022 4.373h9.819l-.165-4.48-.164-4.479h37.915l-.203 3.519c-.111 1.936-.344 3.952-.517 4.479-.52 1.596.368 1.056 1.179-.716 1.213-2.649 8.127-9.245 13.849-13.212l3.135-2.174-.107-5.003c-.059-2.752-.199-5.152-.311-5.335-.111-.182-4.961-.331-10.777-.331h-10.573v5.248c0 6.635.405 6.271-6.996 6.271-7.402 0-6.995.364-6.995-6.271 0-4.937-.05-5.248-.836-5.248-.784 0-.843.353-.955 5.653l-.118 5.653-6.101.119c-7.964.155-7.677.392-7.677-6.371v-5.054H131.48v5.501c0 6.558.643 6.018-7.156 6.018-7.22 0-6.835.357-6.835-6.302 0-4.798-.067-5.267-.741-5.136-.648.125-.769.845-.954 5.684l-.212 5.541-6.1.119c-7.966.155-7.679.392-7.679-6.371v-5.054H84.421v5.501c0 6.548.61 6.018-6.95 6.018-7.328 0-6.995.297-7.139-6.365-.11-5.101-.76-7.299-1.372-4.651Z"
            clipRule="evenodd"
            fillRule="evenodd"
          ></path>
          <path
            fill="#A45E46"
            d="M58 92.55c-.92.927-.916 24.5 0 24.5.312 0 2.681-1.226 4.41-2.075 1.729-.848 6.743-2.071 10.59-3.925 3.849-1.854 8.15-4.804 8.5-5 .87-.488.343-12.961-.5-13.5-1.116-.712-22.266-.738-23 0Zm57.794 15.155c-2.77 1.197-7.957 3.623-13.354 6.247a2767.071 2767.071 0 0 1-10.6 5.123c-2.565 1.23-7.525 3.631-11.023 5.336a2881.998 2881.998 0 0 1-11.447 5.541 5310.776 5310.776 0 0 0-9.752 4.696c-12.048 5.825-14.65 7.043-15.047 7.043a.427.427 0 0 0-.428.426.419.419 0 0 1-.408.426c-.224 0-2.705 1.092-5.511 2.426l-5.103 2.427v9.058c0 4.981-.128 9.392-.285 9.803-.193.507-.125.646.213.436.279-.174.496-1.31.496-2.596v-2.287l4.346-2.125c2.39-1.171 7.016-3.436 10.28-5.037 3.266-1.599 6.127-2.913 6.36-2.92.26-.008.506 2.962.636 7.667l.212 7.679h13.143l.115-9.329c.121-9.94-.088-10.936-2.3-10.936-.827 0-.7-.837.17-1.128.96-.321 4.901-2.183 14.098-6.663 4.081-1.986 9.328-4.529 11.658-5.65 2.333-1.121 6.287-3.026 8.788-4.233 5.189-2.506 4.992-2.592 4.992 2.158 0 5.204.152 5.277 10.811 5.277 10.88 0 10.812.039 10.812-5.988 0-2.142.143-3.827.318-3.745.175.084 2.988 1.465 6.253 3.071 3.264 1.603 7.653 3.743 9.751 4.753a5176.77 5176.77 0 0 1 11.023 5.328 1764.89 1764.89 0 0 0 9.838 4.739c2.709 1.283 3.655 2.081 2.462 2.081-2.356 0-2.76 1.633-2.76 11.147 0 10.503-.918 9.422 7.843 9.241l5.935-.123.116-7.786c.063-4.282.186-7.786.272-7.786.162 0 10.946 5.161 17.207 8.235 4.238 2.081 4.224 2.066 4.233 4.646.004 1.101.229 2.139.5 2.307.367.229.422-.762.213-3.921-.153-2.326-.278-6.728-.28-9.786l-.003-5.559-3.073-1.447c-1.69-.796-6.603-3.161-10.918-5.255a2877.406 2877.406 0 0 0-12.294-5.935 1610.62 1610.62 0 0 1-8.692-4.189c-9.839-4.785-18.064-8.76-21.834-10.553a1551.82 1551.82 0 0 1-10.175-4.907c-16.893-8.218-16.433-8.026-17.807-7.433Zm10.644 14.628c1.023 1.24.581 11.689-.534 12.638-1.344 1.145-17.268 1.126-18.3-.022-.882-.981-1.115-11.669-.275-12.688.809-.98 18.296-.914 19.109.072ZM71 148.05c-1.267 1.378-1.194 17.758.017 18.771.4.333 2.604.451 6.89.372l6.302-.119.113-9.189c.145-11.705.528-11.076-6.722-11.076-4.96 0-5.586.14-6.6 1.241Zm32.578-.871c-1.512.964-1.775 2.579-1.775 10.933 0 10.047-.669 9.233 7.477 9.081l6.302-.119.418-9.329c.143-11.615.553-10.939-6.645-10.929-2.704.003-5.471.166-5.777.363Zm15.705-.084c-1.49.603-1.793 2.5-1.793 11.204 0 10.104-.904 9.079 7.844 8.898l5.935-.123.114-9.189c.146-11.694.506-11.09-6.596-11.042-2.73.019-5.208.132-5.504.252Zm31.373 0c-1.47.595-1.792 2.523-1.792 10.704 0 10.332-.622 9.544 7.422 9.394l6.356-.119.115-9.189c.145-11.694.505-11.09-6.596-11.042-2.731.019-5.209.132-5.505.252ZM67.5 148.55c.653.802.81 1.959.81 9.612v8.698H56.014l-.077-8.211c-.098-10.28-.102-10.22.807-10.919 1.755-.68 9.798-.352 10.755.82Zm109-.793c1.063.714 1.415 2.239 1.275 10.476l-.145 8.65-6.01-.118-6.01-.118-.115-8.487c-.134-9.878-.004-10.342 2.971-10.611 3.397-.308 7.567-.106 8.034.208Zm-93.367.731c.263.492.44 4.366.44 9.598v8.774H71.701v-9.086c0-6.5.145-9.233.508-9.6.952-.956 10.393-.686 10.923.314Zm31.694.455c.395.779.513 3.309.436 9.385l-.104 8.319-6.043.118-6.041.12v-9.1c0-11.006-.502-10.183 6.127-10.028 4.945.116 5.1.149 5.625 1.186Zm15.592-.004c.539 1.048.635 2.747.541 9.493l-.115 8.215H118.55l-.116-8.487c-.149-11.089-.502-10.497 6.263-10.497h5.067l.655 1.276Zm31.081.611c.396.779.899 2.702.823 8.778l-.104 8.319-6.041.118-6.043.12v-9.1c0-11.006-.501-10.183 6.127-10.028 4.944.116 4.713.756 5.238 1.793ZM32.59 181.222c.404.165.553 3.172.622 12.658.05 6.845.15 10.28.226 7.638l.135-4.808 10.69.114 10.692.113.119 5.186c.15 6.521-.273 6.174 7.358 6.026l6.09-.119.212-5.619c.116-3.09.342-5.749.502-5.908.87-.87-.584.391.345 5.908 0 6.47.51 5.832 7.994 5.832 7.443 0 6.846.526 6.846-6.018v-5.501h17.382v5.054c0 6.763-.287 6.526 7.679 6.371l6.1-.119.212-5.541c.185-4.839.306-5.559.954-5.684.674-.131.742.338.742 5.136 0 6.659-.386 6.302 6.834 6.302 7.799 0 7.157.54 7.157-6.018v-5.501h17.383v5.054c0 6.763-.286 6.526 7.678 6.371l6.1-.119.119-5.653c.111-5.3.171-5.653.954-5.653.787 0 .836.311.836 5.248 0 6.635-.407 6.271 6.995 6.271 7.401 0 6.996.365 6.996-6.278v-5.255l10.704.114 10.706.113.215 4.907c-.215 12.206 1.833 7.206.946-8.639l.111-12.266-84.581.034c-46.52.019-84.343.131-84.053.249Zm34.912 7.646c.745.679.807 1.425.807 9.621 0 10.454.78 9.427-6.994 9.238l-5.088-.123-.325-8.533c-.34-8.915.068-9.368 1.598-9.939 1.717-.641 9.138-1.051 10.002-.264Zm13.315.091c2.004.102 3.182.462 2.956 9.521-.119 4.724-.32 8.759-.445 8.963-.3.49-11.083.487-11.385-.004-.127-.208-.331-4.302-.454-9.101.011-11.288-1.776-9.943 9.328-9.379Zm47.167-.091c1.961.101 3.073.614 3.073 9.511 0 10.297.583 9.5-6.841 9.344l-5.666-.119-.12-8.533c-.171-12.094-1.609-10.77 9.554-10.203Zm33.903.264c0 .918.94 17.263.035 18.173-.584.588-11.121.321-11.474-.255-.448-2-.72-17.46 0-18.091 1.603-1.405 9.552-.767 11.439.173Zm15.5 0c.888 1.049.628 17.737-.286 18.365-.257.176-2.948.273-5.979.213l-5.512-.106-.12-8.533c-.136-9.699-.065-10.247 1.388-10.736 2.219-.749 9.68-.182 10.509.797Zm-62.56.918c.922 1.324.868 16.538-.045 17.301-.395.331-2.385.453-6.043.372l-5.452-.119-.339-8.682c-.443-11.337 1.306-10.73 6.048-10.73 4.743 0 5.213.968 5.831 1.858Zm-52.453 25.616c0 .094 1.622 1.824 3.604 3.846 1.983 2.021 3.603 3.96 3.603 4.31 0 .541 1.361.634 9.328.634h9.328v-8.959H75.305c-7.112 0-12.93.075-12.93.169Zm35.62 3.346c.003 1.937.12 3.956.261 4.483l.256.961h36.734l.266-1.813c.146-.997.205-2.967.132-4.374l-.134-2.559-18.761-.112-18.761-.111.007 3.525Zm47.06.004c.003 1.936.121 3.952.261 4.479l.256.961h36.228l.491-1.65c.27-.908.492-2.924.492-4.479v-2.83h-37.734l.006 3.519Z"
            clipRule="evenodd"
            fillRule="evenodd"
          ></path>
          <path
            fill="#54506F"
            d="m-52 174.549 41.127 33.5 46.873 1.5-1-64.5-34.8 3-52.2 26.5Z"
          ></path>
          <path
            fill="#8C8CB4"
            d="M67.909 97a5.195 5.195 0 1 0 0-10.39 5.195 5.195 0 0 0 0 10.39Z"
          ></path>
          <path
            fill="#8C8CB4"
            d="M73.623 74.662a5.195 5.195 0 1 0 0-10.39 5.195 5.195 0 0 0 0 10.39Z"
          ></path>
          <path
            fill="#8C8CB4"
            d="M79.338 79.857a5.195 5.195 0 1 0 0-10.39 5.195 5.195 0 0 0 0 10.39Z"
          ></path>
          <path
            fill="#8C8CB4"
            d="M73.623 90.766a7.792 7.792 0 1 0 0-15.584 7.792 7.792 0 0 0 0 15.584Z"
          ></path>
          <path
            fill="#8C8CB4"
            d="M83.493 72.584a7.792 7.792 0 1 0 0-15.584 7.792 7.792 0 0 0 0 15.584Z"
          ></path>
          <path fill="#8C8CB4" d="M71 85a8 8 0 1 0 0-16 8 8 0 0 0 0 16Z"></path>
          <path
            fill="#E3E1F9"
            d="M183.5 45.55c9.856-7.556-5 22.5-7 30-1.6 6 5.202 12.335 9 15.5 3 2.5-5 27.499-5 27.499l-26-11s2.709-12.695 5.5-20.5c5.562-15.554 17.5-33.5 20-37.5 1.464-2.341 2.5-3.233 3.5-4Z"
          ></path>
          <path
            fill="#E1DFF2"
            d="M-29 198.549c-13.222 3.024-32 13.5-32 13.5v11.5s162.076 38.684 129.5 0c-16-19-21.559-12.739-36-18.5-11.127-4.438-17.14-6.813-29-8.5-12.59-1.79-20.104-.835-32.5 2Z"
          ></path>
          <path
            fill="#E1DFF2"
            d="M182.5 223.55c5.928-7.819 10.276-11.649 18.5-17 10.669-6.944 17.879-9.839 30.5-11.5 11.062-1.456 17.478.267 28.5 2 13.991 2.199 35 9.5 35 9.5v17s-139.043 35.009-112.5 0Z"
          ></path>
          <path
            strokeLinejoin="round"
            stroke="#ffffff"
            fill="#ffffff"
            d="M33 167.049a5 5 0 0 0-5 5v4a5 5 0 0 0 5 5h168a5 5 0 0 0 5-5v-4a5 5 0 0 0-5-5H33Z"
          ></path>
          <path
            strokeLinejoin="round"
            stroke="#ffffff"
            fill="#ffffff"
            d="M58 92a1 1 0 0 0-1 1v3a1 1 0 0 0 1 1h23a1 1 0 0 0 1-1v-3a1 1 0 0 0-1-1H58Z"
          ></path>
          <path
            strokeLinejoin="round"
            stroke="#ffffff"
            fill="#ffffff"
            d="M12.225 139.848a6 6 0 0 0-2.745 8.029l1.904 3.883a6 6 0 0 0 8.029 2.745l101.839-49.947a6 6 0 0 0 2.745-8.029l-1.904-3.882a6 6 0 0 0-8.029-2.745l-101.84 49.946Z"
          ></path>
          <path
            strokeLinejoin="round"
            stroke="#ffffff"
            fill="#ffffff"
            d="M121.479 90.599a6 6 0 0 0-8.007 2.809l-1.873 3.898a6 6 0 0 0 2.809 8.007l101.949 48.99a6 6 0 0 0 8.007-2.809l1.873-3.898a6 6 0 0 0-2.81-8.006L121.479 90.599Z"
          ></path>
          <path
            strokeLinejoin="round"
            stroke="#ffffff"
            fill="#ffffff"
            d="M-10.501 196.549c11.286-.499 31.214 3 39.214 8s17.44 5.434 25.288 9c5.501 2.5 7.439 4.55 10.499 9 3.06 4.45-31 0-61-9s-47.924-4.245-42.787-9c5.645-5.225 17.5-7.5 28.786-8Z"
          ></path>
          <path
            strokeLinejoin="round"
            stroke="#ffffff"
            fill="#ffffff"
            d="M252.5 196.549c-15.091-2.706-24.762-1.109-39 4.5-11.919 4.696-26 16.5-26 20s31.242-2.135 51.157-4.5c16.843-2 53.773 3.021 44.843-9.5-5.594-7.843-22.447-8.966-31-10.5Z"
          ></path>
          <path
            fill="#0CAFAF"
            d="M241 160.375c-2.808-.967-5.476-3.056-7.666-6.338L215.991 122.5l-17.346 31.537c-2.19 3.282-4.863 5.371-7.671 6.338H241Z"
          ></path>
          <path
            fill="#1BC1A9"
            d="m215.991 122.5-17.346 31.537c-2.19 3.282-4.863 5.371-7.671 6.338h25.017V122.5Z"
          ></path>
          <path
            fill="#1BC1A9"
            d="m243.971 182.86-12.366-22.487h-31.229l-12.37 22.487c-3.53 5.293-7.841 8.661-12.365 10.221h80.702c-4.529-1.56-8.838-4.928-12.372-10.221Z"
          ></path>
          <path
            fill="#1BC1A9"
            d="m254.358 216.637-12.956-23.554h-50.829l-12.956 23.554c-4.843 7.255-10.754 11.874-16.961 14.006h110.662c-6.206-2.132-12.118-6.751-16.96-14.006Z"
          ></path>
          <path
            fill="#109BAD"
            d="M231.245 160.375c-1.714-.967-3.342-3.056-4.68-6.338L215.99 122.5l-10.583 31.537c-1.337 3.282-2.966 5.371-4.675 6.338h30.513Z"
          ></path>
          <path
            fill="#0CAFAF"
            d="M205.409 154.037c-1.337 3.282-2.966 5.371-4.675 6.338h15.259V122.5l-10.584 31.537Z"
          ></path>
          <path
            fill="#0CAFAF"
            d="m233.055 182.86-7.54-22.487h-19.049l-7.544 22.487c-2.153 5.293-4.782 8.661-7.54 10.221h49.217c-2.764-1.56-5.387-4.928-7.544-10.221Z"
          ></path>
          <path
            fill="#0CAFAF"
            d="m243.971 182.86-12.366-22.487h-30.089l-.784.784 31.919 31.924h23.689c-4.526-1.56-8.835-4.928-12.369-10.221Z"
          ></path>
          <path
            fill="#109BAD"
            d="m233.055 182.86-7.54-22.487h-19.049l-1.637 4.884 27.824 27.824h7.946c-2.764-1.56-5.387-4.928-7.544-10.221Z"
          ></path>
          <path
            fill="#0CAFAF"
            d="m239.388 216.637-7.893-23.554h-31.007l-7.904 23.554c-2.953 7.255-6.556 11.874-10.344 14.006h67.49c-3.781-2.132-7.386-6.751-10.342-14.006Z"
          ></path>
          <path
            fill="#0CAFAF"
            d="m254.358 216.637-12.956-23.554h-48.279l-1.743 1.743 35.82 35.819h44.118c-6.206-2.134-12.118-6.753-16.96-14.008Z"
          ></path>
          <path
            fill="#109BAD"
            d="m239.388 216.637-7.893-23.554h-31.007l-2.727 8.124 29.437 29.436h22.532c-3.781-2.132-7.386-6.751-10.342-14.006Z"
          ></path>
          <path
            fill="#0CAFAF"
            d="M212 198.375c-2.808-.967-5.476-3.056-7.666-6.338L186.991 160.5l-17.346 31.537c-2.19 3.282-4.863 5.371-7.671 6.338H212Z"
          ></path>
          <path
            fill="#1BC1A9"
            d="m186.991 160.5-17.346 31.537c-2.19 3.282-4.863 5.371-7.671 6.338h25.017V160.5Z"
          ></path>
          <path
            fill="#1BC1A9"
            d="m214.971 220.86-12.366-22.487h-31.229l-12.37 22.487c-3.53 5.293-7.841 8.661-12.365 10.221h80.702c-4.529-1.56-8.838-4.928-12.372-10.221Z"
          ></path>
          <path
            fill="#109BAD"
            d="M202.245 198.375c-1.714-.967-3.342-3.056-4.68-6.338L186.99 160.5l-10.583 31.537c-1.337 3.282-2.966 5.371-4.675 6.338h30.513Z"
          ></path>
          <path
            fill="#0CAFAF"
            d="M176.409 192.037c-1.337 3.282-2.966 5.371-4.675 6.338h15.259V160.5l-10.584 31.537Z"
          ></path>
          <path
            fill="#0CAFAF"
            d="m204.055 220.86-7.54-22.487h-19.049l-7.544 22.487c-2.153 5.293-4.782 8.661-7.54 10.221h49.217c-2.764-1.56-5.387-4.928-7.544-10.221Z"
          ></path>
          <path
            fill="#0CAFAF"
            d="m214.971 220.86-12.366-22.487h-30.089l-.784.784 31.919 31.924h23.689c-4.526-1.56-8.835-4.928-12.369-10.221Z"
          ></path>
          <path
            fill="#109BAD"
            d="m204.055 220.86-7.54-22.487h-19.049l-1.637 4.884 27.824 27.824h7.946c-2.764-1.56-5.387-4.928-7.544-10.221Z"
          ></path>
        </g>
        <defs fill="none">
          <clipPath id="03919e19-ed78-471c-8cb1-29786e8ca152_comp-lcus63le">
            <path
              fill="#ffffff"
              d="M232 112c0 61.856-50.144 112-112 112h-8C50.144 224 0 173.856 0 112S50.144 0 112 0h8c61.856 0 112 50.144 112 112z"
            ></path>
          </clipPath>
        </defs>
      </g>
    </svg>