<svg width="128" height="128" viewBox="0 0 128 128" fill="none" xmlns="http://www.w3.org/2000/svg">
<g clip-path="url(#clip0_245_358)">
<path d="M-3.3103 86.3139C-3.3103 86.3139 6.89659 53.7424 8.27591 49.7424C9.65523 45.7424 11.6108 47.3839 12.138 48.8852C12.6512 50.347 16.7195 62.4976 18.2069 67.7425C19.9177 73.7746 19.0345 72.8853 19.0345 72.8853L99.5863 68.5995C99.5863 68.5995 100.222 65.1384 102.621 56.0281C104.276 49.7424 105.104 52.8853 105.931 56.0281C107.438 61.7506 108.69 70.5995 110.069 70.5995C111.232 70.5995 113.399 61.1824 115.684 53.1521C116.109 51.6587 116.538 50.2132 116.966 48.8852C118.345 44.5996 120.552 54.8571 121.379 58.2856C122.946 64.7743 132.69 83.4568 132.69 83.4568C132.69 83.4568 133.498 113.56 122.759 110.885C113.517 108.584 115.31 86.8853 115.31 86.8853L88.0001 72.8853L19.0345 75.171L13.2414 87.171L9.37935 102.028L2.20694 106.6L-3.3103 86.3139Z" fill="#8C8CB4"/>
<path d="M19.0345 72.8853L99.5863 68.5995C99.5863 68.5995 100.222 65.1384 102.621 56.0281C104.276 49.7424 105.104 52.8853 105.931 56.0281C107.438 61.7506 108.69 70.5995 110.069 70.5995C111.232 70.5995 113.399 61.1824 115.684 53.1521C115.684 53.1521 110.069 39.171 105.931 28.0282C104.462 24.0708 101.784 24.4511 99.5863 28.0282C95.7242 34.3139 90.4828 49.7424 88.0001 49.7424C85.5173 49.7424 68.6897 23.171 63.7242 12.5996C56.2026 -3.41367 54.8966 -0.82897 48 12.5996C36.5127 34.9671 18.2069 67.7425 18.2069 67.7425C19.9177 73.7746 19.0345 72.8853 19.0345 72.8853Z" fill="#C6C3E5"/>
<path fill-rule="evenodd" clip-rule="evenodd" d="M59.216 69.8649C58.7526 70.447 58.8811 76.5542 59.3679 77.1152C59.9373 77.7711 68.7229 77.7817 69.4644 77.1274C70.0798 76.5851 70.3236 70.6142 69.7589 69.9055C69.3102 69.3421 59.6624 69.3048 59.216 69.8649ZM134.069 74.887C133.242 76.603 125.86 101.953 124.225 107.539C123.288 110.739 122.499 109.86 122.499 109.86C122.499 109.86 120.078 101.681 118.503 96.4476C117.434 92.8971 115.995 87.9114 115.748 87.3618C115.387 86.5655 111.638 84.38 110.903 84.38C110.635 84.38 110.589 89.2955 110.823 92.973L110.974 95.35H112.102C113.868 95.35 114.021 95.7291 113.963 99.9822C113.922 103.084 113.748 103.416 112.081 103.583L110.903 103.701V110.739C110.903 114.611 110.982 117.776 111.079 117.773C111.175 117.771 111.517 117.553 111.839 117.291C112.161 117.029 112.493 116.812 112.576 116.809C112.66 116.806 113.66 116.356 114.798 115.809C117.735 114.399 118.127 114.243 120.259 113.634C120.839 113.469 121.576 113.237 121.897 113.119C126.158 111.555 137.622 111.379 143.183 112.794C144.019 113.007 144.994 113.241 145.349 113.314C145.705 113.387 146.054 113.543 146.124 113.662C146.194 113.781 146.508 113.878 146.823 113.878C147.137 113.878 148.691 114.458 150.277 115.168C153.154 116.455 153.16 116.456 153.404 115.919C152.552 112.316 148.929 101.182 146.207 91.6936C144.828 86.8852 143.725 90.0281 143.725 91.4584C141.934 101.966 137.764 77.6403 135.725 74.4565C135.449 74.026 134.897 73.171 134.069 74.887ZM18.207 117.744C18.4501 117.744 18.2738 116.354 18.2738 110.739V103.699C18.2103 103.457 18.2738 93.6369 18.2738 89.5723C18.2738 86.7164 18.2474 84.38 18.2146 84.3809L18.207 117.744ZM31.3077 84.4182C30.8061 84.8176 30.8084 84.7835 30.8622 90.6577L30.905 95.35H34.2965H37.688V90.3793C37.688 84.1024 37.8663 84.4247 34.2965 84.2282C32.3219 84.1195 31.6271 84.1641 31.3077 84.4182ZM92.947 84.3151C91.3057 84.4685 91.2341 84.734 91.3081 90.3785L91.3712 95.2282L94.6871 95.2956L98.003 95.363L98.0832 90.4199C98.1946 83.6502 98.3294 83.8101 92.947 84.3151ZM39.8401 84.6723C39.64 84.8817 39.5597 86.4437 39.5597 90.1577V95.35H42.8343H46.1089V90.3363C46.1089 87.3464 46.0115 85.1326 45.8667 84.8517C45.5738 84.2802 40.3651 84.1259 39.8401 84.6723ZM57.1565 84.665C56.947 84.8834 56.8691 86.3771 56.8691 90.1642V95.3638L60.2022 95.2956L63.536 95.2282L63.5936 90.4743C63.67 84.169 64.3048 84.4677 60.6898 84.38C58.7067 84.3321 57.3598 84.4539 57.1565 84.665ZM65.6414 84.9548C65.34 85.4338 65.2909 86.3373 65.3431 90.3785L65.407 95.2282H68.7985H72.1907L72.2538 90.5335C72.306 86.6791 72.253 85.7082 71.9555 85.109L71.594 84.38H68.7985C66.1197 84.38 65.9872 84.4036 65.6414 84.9548ZM83.1206 84.665C82.9119 84.8834 82.8332 86.3771 82.8332 90.1642V95.3638L86.1672 95.2956L89.5002 95.2282L89.5578 90.4743C89.6342 84.169 89.829 84.5213 86.214 84.4336C84.2308 84.3857 83.3239 84.4539 83.1206 84.665ZM31.5889 107.594C30.7446 107.92 30.655 108.662 30.8427 113.756L31.0219 118.632L33.8292 118.702C38.1179 118.81 37.688 119.397 37.688 113.423C37.688 107.194 37.8695 107.526 34.4204 107.461C33.1133 107.438 31.839 107.497 31.5889 107.594ZM40.436 107.51C39.3486 107.857 39.312 108.072 39.4421 113.337C39.5099 116.08 39.6228 118.419 39.6929 118.538C39.8596 118.819 45.8082 118.82 45.9742 118.54C46.0435 118.423 46.1541 116.118 46.2195 113.418C46.3442 108.242 46.2211 107.582 45.115 107.524C43.6202 107.445 40.6674 107.437 40.436 107.51ZM65.6553 107.524C64.8522 107.803 65.2652 108.212 65.3408 113.756L65.407 118.632L68.5328 118.7C72.6292 118.789 72.3075 119.245 72.3075 113.361C72.3075 108.276 72.1611 107.582 71.0791 107.524C68.9659 107.413 66.1203 107.362 65.6553 107.524ZM83.7088 107.51C82.6214 107.858 82.6187 108.074 82.7589 113.361C82.8321 116.112 82.9127 118.446 82.9773 118.555C83.1721 118.884 89.0141 118.797 89.3366 118.461C89.8359 117.941 89.7214 108.696 89.2081 108.069C88.8186 107.593 84.7432 107.18 83.7088 107.51ZM92.0706 107.621C91.2691 107.901 91.2302 108.214 91.3049 113.756L91.3712 118.632L94.4121 118.693C96.0845 118.727 97.5691 118.672 97.7109 118.571C98.2156 118.212 98.359 108.676 97.869 108.077C97.4118 107.517 93.2951 107.193 92.0706 107.621ZM56.9797 108.125C56.6587 108.635 56.6362 109.349 56.799 113.671L56.9859 118.632L59.9942 118.7C62.0124 118.746 63.1099 118.677 63.328 118.487C63.832 118.051 63.7969 108.838 63.2883 108.082C62.7064 107.215 57.5288 107.251 56.9797 108.125Z" fill="#54506F"/>
<rect x="34.2069" y="84" width="0.551723" height="11.4286" fill="#A45E46"/>
<rect x="34.2069" y="107.429" width="0.551723" height="11.4286" fill="#A45E46"/>
<rect x="42.4828" y="107.429" width="0.551723" height="11.4286" fill="#A45E46"/>
<rect x="60.1379" y="107.429" width="0.551723" height="11.4286" fill="#A45E46"/>
<rect x="68.4138" y="107.429" width="0.55172" height="11.4286" fill="#A45E46"/>
<rect x="86.069" y="107.429" width="0.551727" height="11.4286" fill="#A45E46"/>
<rect x="94.3448" y="107.429" width="0.551727" height="11.4286" fill="#A45E46"/>
<rect x="42.4828" y="84" width="0.551723" height="11.4286" fill="#A45E46"/>
<rect x="60.1379" y="84" width="0.551723" height="11.4286" fill="#A45E46"/>
<rect x="68.4138" y="84" width="0.55172" height="11.4286" fill="#A45E46"/>
<rect x="86.069" y="84" width="0.551727" height="11.4286" fill="#A45E46"/>
<rect x="64.5518" y="68" width="0.551727" height="11.4286" fill="#A45E46"/>
<rect x="94.3448" y="84" width="0.551727" height="11.4286" fill="#A45E46"/>
<rect width="0.571429" height="9.47145" transform="matrix(-0.00550712 0.999985 -0.999983 -0.00590752 38.7158 89.1987)" fill="#A45E46"/>
<rect width="0.571429" height="9.47145" transform="matrix(-0.00550712 0.999985 -0.999983 -0.00590752 38.7158 112.627)" fill="#A45E46"/>
<rect width="0.571429" height="9.47145" transform="matrix(-0.00550712 0.999985 -0.999983 -0.00590751 46.9917 112.627)" fill="#A45E46"/>
<rect width="0.571429" height="9.47145" transform="matrix(-0.00550712 0.999985 -0.999983 -0.00590752 64.6469 112.627)" fill="#A45E46"/>
<rect width="0.571429" height="9.47145" transform="matrix(-0.00550712 0.999985 -0.999983 -0.00590751 72.9227 112.627)" fill="#A45E46"/>
<rect width="0.571429" height="9.47145" transform="matrix(-0.00550713 0.999985 -0.999983 -0.00590751 90.5779 112.627)" fill="#A45E46"/>
<rect width="0.571429" height="9.47145" transform="matrix(-0.00550712 0.999985 -0.999983 -0.00590752 98.8538 112.627)" fill="#A45E46"/>
<rect width="0.571429" height="9.47145" transform="matrix(-0.00550712 0.999985 -0.999983 -0.00590751 46.9917 89.1987)" fill="#A45E46"/>
<rect width="0.571429" height="9.47145" transform="matrix(-0.00550712 0.999985 -0.999983 -0.00590752 64.6469 89.1987)" fill="#A45E46"/>
<rect width="0.571429" height="9.47145" transform="matrix(-0.00550712 0.999985 -0.999983 -0.00590751 72.9227 89.1987)" fill="#A45E46"/>
<rect width="0.571429" height="9.47145" transform="matrix(-0.00550713 0.999985 -0.999983 -0.00590751 90.5779 89.1987)" fill="#A45E46"/>
<rect width="0.571425" height="11.7955" transform="matrix(-0.00550716 0.999985 -0.999983 -0.00590748 70.4204 73.2068)" fill="#A45E46"/>
<rect width="0.571429" height="9.47145" transform="matrix(-0.00550713 0.999985 -0.999983 -0.00590751 98.8538 89.1987)" fill="#A45E46"/>
<path d="M56.8276 7.45676C55.7058 17.6475 48.5311 25.8553 45.5173 36C42.2069 47.1428 57.8227 39.0052 56.2759 44C51.5862 59.1428 45.5173 67.4568 45.5173 67.4568L14.3448 84.0282C14.3448 84.0282 16.0986 73.8115 17.9311 67.4568C19.7636 61.102 60.076 -22.0529 56.8276 7.45676Z" fill="#E3E1F9"/>
<path fill-rule="evenodd" clip-rule="evenodd" d="M32.4837 53.1944C32.2586 53.3315 32.074 53.5556 32.074 53.692C32.074 53.8292 32.2399 53.7691 32.4417 53.558C32.8467 53.1359 43.8039 52.9735 44.4201 53.3802C44.8851 53.6879 44.7176 60.4836 44.2378 60.7628C44.0446 60.8749 42.1503 61.8336 40.0269 62.893C37.9043 63.9524 35.3868 65.2164 34.4334 65.7011C33.4792 66.1865 32.5585 66.5835 32.3864 66.5835C32.215 66.5835 32.074 66.6907 32.074 66.8214C32.074 67.1883 32.3077 67.0811 41.2553 62.5983L44.9396 60.7531V57.0943C44.9396 53.7269 44.9038 53.416 44.487 53.1838C43.8849 52.8477 33.0383 52.8575 32.4837 53.1944ZM60.9622 62.5569C59.5476 63.2713 56.9686 64.5645 55.2316 65.4307C53.4946 66.2969 50.6531 67.7208 48.916 68.5952C47.179 69.4703 44.7581 70.6783 43.536 71.2814C42.3138 71.8838 39.5767 73.2509 37.4541 74.32C35.3315 75.3884 32.7525 76.6808 31.7235 77.1914C30.6938 77.7028 27.6419 79.2331 24.9398 80.5937C22.2385 81.9535 19.6859 83.224 19.2676 83.4172C18.8494 83.6096 18.5074 83.8539 18.5074 83.9603C18.5074 84.0666 18.6912 84.052 18.9163 83.9286C20.1728 83.2402 23.9342 81.4542 24.1274 81.4542C24.2528 81.4542 24.3548 81.3446 24.3548 81.2107C24.3548 81.0767 24.4608 80.9671 24.5909 80.9671C24.8097 80.9671 26.2453 80.2714 32.8927 76.943C34.308 76.2343 36.7289 75.0271 38.2727 74.2592C39.8166 73.4912 42.6589 72.0665 44.5883 71.0931C46.5185 70.1189 49.2549 68.747 50.6702 68.0439C52.0855 67.3409 54.7167 66.0234 56.5184 65.1166C58.3193 64.2098 60.5821 63.0944 61.5471 62.6381C62.5122 62.1819 63.5646 61.6834 63.8863 61.5308C64.384 61.2946 64.4019 61.2532 64.0031 61.2556C63.7461 61.2572 62.3775 61.8425 60.9622 62.5569ZM64.8218 61.3993C65.2377 61.5657 69.5304 63.6902 73.9446 65.9129C75.6816 66.7881 78.1025 67.996 79.3247 68.5984C81.4332 69.6367 86.2275 72.0372 91.3708 74.6293C92.6576 75.278 94.9733 76.434 96.5172 77.1995C98.061 77.9642 100.903 79.3857 102.833 80.3567C104.763 81.3284 107.184 82.5364 108.213 83.0397C109.242 83.5438 110.163 84.0033 110.26 84.0609C110.356 84.1178 110.435 84.0488 110.435 83.9067C110.435 83.7646 110.342 83.6485 110.229 83.6485C110.117 83.6485 107.985 82.6208 105.493 81.3641C96.296 76.7271 94.3712 75.7626 92.5408 74.8721C91.5118 74.3712 89.2482 73.246 87.5112 72.3717C85.775 71.4974 83.0378 70.123 81.4301 69.3193C79.8216 68.5148 76.822 67.0121 74.7633 65.9803C72.7045 64.9485 70.5469 63.8786 69.9682 63.6034C69.3894 63.3281 68.0832 62.6795 67.0667 62.1616C66.0501 61.6436 65.05 61.2288 64.8444 61.2394C64.5266 61.2556 64.5234 61.2791 64.8218 61.3993ZM56.9756 73.1657C56.3268 73.5009 54.4316 74.4556 52.7655 75.2869C51.0986 76.1182 47.5241 77.9107 44.8228 79.2696C39.0392 82.18 37.2508 83.0551 36.6939 83.2475C36.2133 83.4139 36.1431 83.8921 36.5996 83.8921C37.8202 83.8921 37.9355 84.4612 37.8685 90.1414L37.8054 95.4717H34.1795H30.5536L30.4367 91.0839C30.3651 88.3952 30.2295 86.6985 30.0862 86.7026C29.9577 86.7066 28.3788 87.4575 26.5771 88.3716C24.7762 89.2865 22.2237 90.5806 20.905 91.2495L18.5074 92.464V93.7767C18.5074 95.2728 18.1966 95.5943 16.7517 95.5943C15.3496 95.5943 15.2328 95.8914 15.2328 99.439C15.2328 102.18 15.2881 102.641 15.6604 102.992C16.0553 103.364 19.7825 103.395 64.5351 103.395H112.981L113.346 102.853C113.626 102.435 113.71 101.637 113.71 99.3562C113.71 96.0351 113.52 95.5943 112.097 95.5943C110.797 95.5943 110.435 95.2355 110.431 93.9398C110.427 92.4591 110.436 92.4688 108.096 91.2795C104.641 89.5228 98.692 86.5735 98.6024 86.5735C98.5549 86.5735 98.4871 88.5762 98.4521 91.023L98.3882 95.4717L95.1136 95.5423C90.2803 95.6454 90.7866 96.2632 90.7866 90.2615C90.7866 84.8248 91.0094 83.8921 92.3094 83.8921C92.9676 83.8921 92.4457 83.4358 90.951 82.7028C90.1526 82.3115 87.7106 81.093 85.5234 79.9946C83.3361 78.897 80.5998 77.5267 79.4415 76.9503C78.284 76.3731 75.8623 75.1505 74.0614 74.234C72.2606 73.3166 70.7081 72.5276 70.6116 72.4797C70.515 72.4326 70.4363 73.3954 70.4363 74.6196C70.4363 78.0633 70.4737 78.0414 64.4713 78.0414C58.5646 78.0414 58.5086 78.0121 58.5031 74.9443C58.4984 72.5073 58.4221 72.4188 56.9756 73.1657ZM46.1041 84.4303C46.5637 84.945 46.5831 85.2088 46.5224 90.2209L46.4601 95.4717L42.9829 95.5399C38.4776 95.6276 38.8577 96.1268 38.8577 90.1146C38.8577 83.6875 38.7276 83.8921 42.8139 83.8921C45.4101 83.8921 45.6593 83.9327 46.1041 84.4303ZM63.3878 84.3516C63.8839 84.8005 63.8941 84.9328 63.8325 90.1414L63.7694 95.4717L60.2923 95.5399C55.7979 95.6268 56.1671 96.0919 56.1671 90.3508C56.1671 83.8255 56.1203 83.9018 60.1661 83.8961C62.4912 83.8929 62.9516 83.9578 63.3878 84.3516ZM72.0689 84.4303C72.5277 84.945 72.5472 85.2088 72.4872 90.2209L72.4241 95.4717L69.1495 95.5423C64.3233 95.6454 64.8218 96.2316 64.8218 90.458C64.8218 83.707 64.6784 83.9408 68.8481 83.9116C71.385 83.8937 71.6226 83.9318 72.0689 84.4303ZM89.3783 84.4303C89.8379 84.945 89.8566 85.2088 89.7966 90.2209L89.7335 95.4717L86.2268 95.5399C81.7884 95.626 82.1319 96.0757 82.1319 90.1722C82.1319 83.7492 82.0081 83.9408 86.1574 83.9116C88.6944 83.8937 88.932 83.9318 89.3783 84.4303ZM38.0469 112.702C37.9767 113.014 37.8942 114.53 37.8622 116.072L37.8054 118.875L34.4451 118.944C30.235 119.028 30.4679 119.226 30.3853 115.5L30.3199 112.537L24.4133 112.472L18.5074 112.407L18.4724 115.092C18.4529 116.57 18.4264 117.916 18.4139 118.083C18.3968 118.299 19.0721 118.432 20.7297 118.541C25.2179 118.833 29.4288 120.217 32.564 122.429C34.4202 123.739 37.6107 126.931 37.7844 127.653C37.9425 128.31 38.3896 128.492 38.3896 127.899C38.3896 127.7 37.4954 126.592 36.4018 125.436C35.3081 124.281 34.4132 123.292 34.4132 123.239C34.4132 123.185 37.6239 123.142 41.5474 123.142H48.6824V125.702V128.261H51.4366H54.1909L54.0998 125.699L54.0087 123.137L64.3863 123.2L74.7633 123.264L74.75 125.763L74.7375 128.261H77.4459H80.155L80.0639 125.702L79.9735 123.142H90.433H100.892L100.78 125.153C100.719 126.26 100.59 127.412 100.495 127.713C100.208 128.624 100.698 128.316 101.146 127.304C101.815 125.79 105.629 122.02 108.786 119.754L110.516 118.512L110.457 115.652C110.424 114.08 110.347 112.709 110.286 112.604C110.224 112.5 107.548 112.415 104.339 112.415H98.5058V115.414C98.5058 119.205 98.7293 118.997 94.6462 118.997C90.5623 118.997 90.7866 119.205 90.7866 115.414C90.7866 112.593 90.7593 112.415 90.3255 112.415C89.8932 112.415 89.8605 112.616 89.7989 115.645L89.7335 118.875L86.3677 118.944C81.9738 119.032 82.1319 119.168 82.1319 115.303V112.415H77.3361H72.541V115.558C72.541 119.306 72.8954 118.997 68.5926 118.997C64.6091 118.997 64.8218 119.201 64.8218 115.396C64.8218 112.654 64.7844 112.387 64.4128 112.461C64.0553 112.533 63.9883 112.944 63.8863 115.709L63.7694 118.875L60.4037 118.944C56.009 119.032 56.1671 119.168 56.1671 115.303V112.415H51.372H46.5769V115.558C46.5769 119.3 46.9142 118.997 42.743 118.997C38.6996 118.997 38.8834 119.167 38.804 115.36C38.7432 112.445 38.3849 111.189 38.0469 112.702Z" fill="#E49963"/>
<path fill-rule="evenodd" clip-rule="evenodd" d="M32.0002 52.8859C31.4923 53.4152 31.4947 66.8859 32.0002 66.8859C32.1723 66.8859 33.4794 66.1854 34.4336 65.7C35.387 65.2153 38.1535 64.5167 40.2761 63.4573C42.3994 62.3979 44.7725 60.7122 44.9657 60.6002C45.4455 60.3209 45.1549 53.1936 44.6899 52.8859C44.0737 52.4792 32.4052 52.4638 32.0002 52.8859ZM63.8864 61.5459C62.3582 62.2295 59.4964 63.616 56.5186 65.1155C54.7169 66.0222 52.0857 67.3398 50.6704 68.0428C49.255 68.7459 46.5187 70.1178 44.5885 71.092C42.6591 72.0653 39.8168 73.4901 38.2729 74.258C36.7291 75.026 34.3082 76.2332 32.8929 76.9419C26.2455 80.2703 24.8099 80.966 24.591 80.966C24.4609 80.966 24.355 81.0756 24.355 81.2096C24.355 81.3435 24.2537 81.4531 24.1299 81.4531C24.006 81.4531 22.6375 82.0774 21.089 82.8397L18.2739 84.2262V89.4023C18.2739 92.2485 18.203 94.7692 18.1166 95.0038C18.0099 95.2936 18.0472 95.3732 18.2342 95.253C18.3876 95.154 18.5076 94.5046 18.5076 93.7699V92.4629L20.9051 91.2484C22.2239 90.5795 24.7764 89.2854 26.5773 88.3705C28.379 87.4564 29.9578 86.7055 30.0864 86.7014C30.2297 86.6974 30.3652 88.3941 30.4369 91.0828L30.5537 95.4706H34.1796H37.8056L37.8687 90.1403C37.9356 84.46 37.8204 83.891 36.5998 83.891C36.1433 83.891 36.2134 83.4128 36.694 83.2464C37.2237 83.0629 39.3977 81.9986 44.4716 79.439C46.7235 78.3041 49.618 76.851 50.904 76.2104C52.1908 75.5699 54.3726 74.4813 55.7521 73.7913C58.6154 72.3592 58.5064 72.3105 58.5064 75.0244C58.5064 77.998 58.5905 78.0403 64.4714 78.0403C70.4739 78.0403 70.4365 78.0622 70.4365 74.6185C70.4365 73.3943 70.5151 72.4315 70.6117 72.4786C70.7083 72.5265 72.2607 73.3155 74.0616 74.2329C75.8625 75.1494 78.2842 76.372 79.4417 76.9492C80.5999 77.5256 83.3363 78.8959 85.5235 79.9935C87.7108 81.0919 90.1527 82.3104 90.9511 82.7017C92.4459 83.4347 92.9678 83.891 92.3096 83.891C91.0095 83.891 90.7868 84.8237 90.7868 90.2604C90.7868 96.2621 90.2805 95.6443 95.1137 95.5412L98.3883 95.4706L98.4522 91.0219C98.4873 88.5751 98.555 86.5724 98.6025 86.5724C98.6921 86.5724 104.642 89.5217 108.096 91.2784C110.434 92.4677 110.427 92.4588 110.431 93.933C110.434 94.5622 110.558 95.1556 110.707 95.2514C110.91 95.3821 110.94 94.8163 110.825 93.0108C110.741 91.6819 110.671 89.1661 110.671 87.4191L110.669 84.2425L108.973 83.4152C108.041 82.9606 105.33 81.609 102.95 80.4124C100.57 79.2158 97.5175 77.6896 96.1668 77.0214C94.8154 76.3525 92.6578 75.2761 91.371 74.6274C85.9426 71.8933 81.4046 69.6218 79.3248 68.5973C78.1027 67.9957 75.5766 66.7334 73.7111 65.7933C64.3904 61.097 64.6443 61.2066 63.8864 61.5459ZM69.7588 69.9043C70.3235 70.613 70.0797 76.5839 69.4644 77.1262C68.7228 77.7805 59.9373 77.7699 59.3679 77.114C58.881 76.553 58.7525 70.4458 59.216 69.8637C59.6623 69.3036 69.3101 69.3409 69.7588 69.9043ZM39.1726 84.6002C38.4731 85.3877 38.5136 94.7473 39.1819 95.3261C39.4024 95.5169 40.6183 95.5843 42.9831 95.5388L46.4602 95.4706L46.5226 90.2198C46.6028 83.5313 46.8139 83.891 42.8141 83.891C40.0769 83.891 39.7319 83.9711 39.1726 84.6002ZM57.1464 84.102C56.3121 84.6532 56.1673 85.5763 56.1673 90.3497C56.1673 96.0908 55.798 95.6257 60.2925 95.5388L63.7696 95.4706L64 90.1403C64.0787 83.5029 64.3054 83.8893 60.3336 83.895C58.842 83.8966 57.3154 83.99 57.1464 84.102ZM65.8112 84.0541C64.9894 84.3992 64.8219 85.4829 64.8219 90.4569C64.8219 96.2304 64.3234 95.6443 69.1497 95.5412L72.4243 95.4706L72.4874 90.2198C72.5676 83.5378 72.7662 83.8828 68.8482 83.9104C67.3418 83.921 65.9748 83.9859 65.8112 84.0541ZM83.1206 84.0541C82.3097 84.3943 82.1321 85.4959 82.1321 90.1711C82.1321 96.0746 81.7886 95.6249 86.2269 95.5388L89.7337 95.4706L89.7968 90.2198C89.877 83.5378 90.0756 83.8828 86.1576 83.9104C84.6511 83.921 83.2841 83.9859 83.1206 84.0541ZM37.2416 84.8859C37.6015 85.3438 37.6879 86.0049 37.6879 90.3781V95.3488H34.2965H30.905L30.8622 90.6566C30.8084 84.7823 30.8061 84.8164 31.3077 84.417C32.2761 84.0288 36.7135 84.2162 37.2416 84.8859ZM97.3795 84.4324C97.9661 84.8408 98.1601 85.7119 98.083 90.4187L98.0028 95.3618L94.6869 95.2944L91.371 95.2271L91.3079 90.3773C91.2339 84.7328 91.3055 84.4673 92.9467 84.3139C94.8208 84.1377 97.1217 84.253 97.3795 84.4324ZM45.8667 84.8505C46.0116 85.1314 46.1089 87.3452 46.1089 90.3351V95.3488H42.8343H39.5597V90.1565C39.5597 86.4425 39.6399 84.8806 39.8401 84.6711C40.3651 84.1248 45.5738 84.279 45.8667 84.8505ZM63.3529 85.1103C63.571 85.5552 63.6356 87.001 63.5936 90.4731L63.5359 95.2271L60.2021 95.2944L56.8691 95.3626V90.163C56.8691 83.8739 56.5918 84.344 60.2496 84.4324C62.9774 84.499 63.0631 84.5177 63.3529 85.1103ZM71.9554 85.1079C72.2529 85.707 72.3059 86.6779 72.2537 90.5324L72.1906 95.2271H68.7984H65.4069L65.343 90.3773C65.2605 84.0403 65.0657 84.3789 68.7984 84.3789H71.594L71.9554 85.1079ZM89.1037 85.4574C89.3218 85.9022 89.5997 87.001 89.5576 90.4731L89.5 95.2271L86.1669 95.2944L82.8331 95.3626V90.163C82.8331 83.8739 82.5566 84.344 86.2137 84.4324C88.9415 84.499 88.8139 84.8647 89.1037 85.4574ZM17.981 103.555C18.2038 103.65 18.2856 105.368 18.3238 110.789C18.351 114.7 18.4071 116.663 18.4484 115.153L18.5232 112.406L24.4212 112.471L30.32 112.536L30.3855 115.499C30.468 119.225 30.2351 119.027 34.4453 118.942L37.8056 118.874L37.9224 115.664C37.9863 113.898 38.1109 112.378 38.1989 112.287C38.6787 111.79 37.8769 112.511 38.3898 115.664C38.3898 119.36 38.6709 118.996 42.8001 118.996C46.9066 118.996 46.5771 119.296 46.5771 115.557V112.414H51.3722H56.1673V115.301C56.1673 119.166 56.0091 119.031 60.4039 118.942L63.7696 118.874L63.8864 115.708C63.9885 112.943 64.0555 112.532 64.413 112.46C64.7845 112.385 64.8219 112.653 64.8219 115.395C64.8219 119.2 64.6093 118.996 68.5927 118.996C72.8955 118.996 72.5411 119.304 72.5411 115.557V112.414H77.3362H82.1321V115.301C82.1321 119.166 81.974 119.031 86.3679 118.942L89.7337 118.874L89.7991 115.644C89.8606 112.615 89.8933 112.414 90.3256 112.414C90.7595 112.414 90.7868 112.592 90.7868 115.413C90.7868 119.204 90.5624 118.996 94.6464 118.996C98.7295 118.996 98.506 119.205 98.506 115.409V112.406L104.412 112.471L110.318 112.536L110.437 115.34C110.318 122.315 111.448 119.457 110.959 110.403L111.02 103.394L64.3546 103.413C38.6881 103.424 17.8206 103.488 17.981 103.555ZM37.2424 107.925C37.6537 108.313 37.6879 108.739 37.6879 113.422C37.6879 119.396 38.1179 118.809 33.8291 118.701L31.0219 118.631L30.8427 113.755C30.655 108.661 30.88 108.402 31.7243 108.076C32.6715 107.709 36.7657 107.475 37.2424 107.925ZM44.5885 107.977C45.6946 108.035 46.3442 108.24 46.2195 113.417C46.1541 116.117 46.0435 118.422 45.9742 118.539C45.8083 118.819 39.8596 118.817 39.6929 118.537C39.6228 118.418 39.5099 116.078 39.4421 113.336C39.4485 106.886 38.4622 107.654 44.5885 107.977ZM70.6117 107.925C71.6937 107.982 72.3075 108.275 72.3075 113.36C72.3075 119.244 72.6291 118.788 68.5328 118.699L65.4069 118.631L65.3407 113.755C65.2465 106.844 64.4527 107.601 70.6117 107.925ZM89.3169 108.076C89.3169 108.6 89.8357 117.94 89.3364 118.46C89.0139 118.796 83.2008 118.643 83.006 118.315C82.7588 117.172 82.6088 108.337 83.006 107.977C83.8901 107.174 88.2761 107.538 89.3169 108.076ZM97.8688 108.076C98.3587 108.675 98.2154 118.211 97.7107 118.57C97.5689 118.67 96.0843 118.726 94.4119 118.692L91.371 118.631L91.3048 113.755C91.23 108.213 91.2689 107.899 92.0704 107.62C93.2949 107.192 97.4116 107.516 97.8688 108.076ZM63.3529 108.6C63.8615 109.357 63.8319 118.05 63.328 118.486C63.1099 118.675 62.0123 118.745 59.9941 118.699L56.9859 118.631L56.799 113.67C56.5544 107.191 57.5195 107.538 60.1359 107.538C62.7523 107.538 63.0117 108.091 63.3529 108.6ZM34.4133 123.238C34.4133 123.291 35.3083 124.28 36.4019 125.435C37.4955 126.59 38.3898 127.699 38.3898 127.898C38.3898 128.208 39.1406 128.26 43.5361 128.26H48.6825V125.701V123.141H41.5475C37.6241 123.141 34.4133 123.184 34.4133 123.238ZM54.0657 125.149C54.0673 126.257 54.1319 127.41 54.2098 127.712L54.3508 128.26H64.4839H74.6178L74.765 127.224C74.8452 126.655 74.8779 125.529 74.8374 124.725L74.7634 123.263L64.413 123.199L54.0618 123.135L54.0657 125.149ZM80.0298 125.152C80.0313 126.258 80.0967 127.41 80.1739 127.712L80.3148 128.26H90.3093H100.303L100.574 127.318C100.723 126.799 100.845 125.647 100.845 124.758V123.141H90.4355H80.0266L80.0298 125.152Z" fill="#A45E46"/>
<path d="M-28.6897 99.7425L-5.99879 118.885L19.862 119.743L19.3103 82.8854L0.110304 84.5997L-28.6897 99.7425Z" fill="#54506F"/>
<path d="M37.4671 55.4285C39.05 55.4285 40.3331 54.0995 40.3331 52.46C40.3331 50.8206 39.05 49.4916 37.4671 49.4916C35.8841 49.4916 34.601 50.8206 34.601 52.46C34.601 54.0995 35.8841 55.4285 37.4671 55.4285Z" fill="#8C8CB4"/>
<path d="M40.6198 42.6642C42.2027 42.6642 43.4859 41.3352 43.4859 39.6958C43.4859 38.0563 42.2027 36.7273 40.6198 36.7273C39.0369 36.7273 37.7537 38.0563 37.7537 39.6958C37.7537 41.3352 39.0369 42.6642 40.6198 42.6642Z" fill="#8C8CB4"/>
<path d="M43.7725 45.6326C45.3554 45.6326 46.6386 44.3036 46.6386 42.6641C46.6386 41.0247 45.3554 39.6957 43.7725 39.6957C42.1896 39.6957 40.9064 41.0247 40.9064 42.6641C40.9064 44.3036 42.1896 45.6326 43.7725 45.6326Z" fill="#8C8CB4"/>
<path d="M40.6197 51.8664C42.9941 51.8664 44.9189 49.8729 44.9189 47.4137C44.9189 44.9546 42.9941 42.9611 40.6197 42.9611C38.2454 42.9611 36.3206 44.9546 36.3206 47.4137C36.3206 49.8729 38.2454 51.8664 40.6197 51.8664Z" fill="#8C8CB4"/>
<path d="M46.0654 41.4768C48.4397 41.4768 50.3645 39.4833 50.3645 37.0241C50.3645 34.5649 48.4397 32.5714 46.0654 32.5714C43.691 32.5714 41.7662 34.5649 41.7662 37.0241C41.7662 39.4833 43.691 41.4768 46.0654 41.4768Z" fill="#8C8CB4"/>
<path d="M39.1725 48.5714C41.6101 48.5714 43.5863 46.5248 43.5863 44C43.5863 41.4753 41.6101 39.4286 39.1725 39.4286C36.7348 39.4286 34.7587 41.4753 34.7587 44C34.7587 46.5248 36.7348 48.5714 39.1725 48.5714Z" fill="#8C8CB4"/>
<path d="M101.241 26.0283C106.679 21.7109 98.4827 38.8855 97.3793 43.1712C96.4965 46.5997 100.249 50.2198 102.345 52.0283C104 53.4569 99.5862 67.7426 99.5862 67.7426L85.2413 61.4569C85.2413 61.4569 86.736 54.2025 88.2758 49.7426C91.3445 40.8543 97.931 30.5997 99.3103 28.314C100.118 26.9759 100.69 26.4664 101.241 26.0283Z" fill="#E3E1F9"/>
<path d="M19.4482 95.4568C17.2391 95.4568 15.4482 97.2476 15.4482 99.4568V99.4568C15.4482 101.666 17.2391 103.457 19.4482 103.457H109.655C111.864 103.457 113.655 101.666 113.655 99.4568V99.4568C113.655 97.2476 111.864 95.4568 109.655 95.4568H19.4482Z" fill="white" stroke="white" stroke-linejoin="round"/>
<path d="M32.4482 52.5714C31.896 52.5714 31.4482 53.0191 31.4482 53.5714V54.4286C31.4482 54.9808 31.896 55.4286 32.4482 55.4286H44.2413C44.7936 55.4286 45.2413 54.9808 45.2413 54.4286V53.5714C45.2413 53.0191 44.7936 52.5714 44.2413 52.5714H32.4482Z" fill="white" stroke="white" stroke-linejoin="round"/>
<path d="M7.90334 79.3247C5.62185 80.4836 4.66015 83.298 5.75532 85.6107V85.6107C6.85049 87.9235 9.58781 88.8588 11.8693 87.6999L65.7387 60.3363C68.0201 59.1774 68.9818 56.363 67.8867 54.0503V54.0503C66.7915 51.7375 64.0542 50.8022 61.7727 51.9611L7.90334 79.3247Z" fill="white" stroke="white" stroke-linejoin="round"/>
<path d="M68.1879 52.3507C65.8965 51.2103 63.1657 52.1679 62.0884 54.4897V54.4897C61.0112 56.8115 61.9955 59.6182 64.2868 60.7586L118.204 87.5935C120.495 88.7339 123.226 87.7763 124.304 85.4545V85.4545C125.381 83.1327 124.396 80.3261 122.105 79.1856L68.1879 52.3507Z" fill="white" stroke="white" stroke-linejoin="round"/>
<path d="M132.966 91.6427C131.416 91.09 129.944 89.8967 128.736 88.0211L119.167 70L109.597 88.0211C108.389 89.8967 106.914 91.09 105.365 91.6427H132.966Z" fill="#0CAFAF"/>
<path d="M119.167 70L109.597 88.0211C108.389 89.8967 106.914 91.09 105.365 91.6427H119.167V70Z" fill="#1BC1A9"/>
<path d="M134.605 104.491L127.782 91.6415H110.552L103.728 104.491C101.78 107.516 99.4012 109.44 96.9052 110.332H141.43C138.932 109.44 136.554 107.516 134.605 104.491Z" fill="#1BC1A9"/>
<path d="M140.336 123.792L133.187 110.333H105.144L97.9954 123.792C95.3238 127.938 92.0623 130.578 88.6379 131.796H149.693C146.269 130.578 143.007 127.938 140.336 123.792Z" fill="#1BC1A9"/>
<path d="M127.583 91.6427C126.638 91.09 125.739 89.8967 125.001 88.0211L119.167 70L113.328 88.0211C112.59 89.8967 111.692 91.09 110.748 91.6427H127.583Z" fill="#109BAD"/>
<path d="M113.329 88.0211C112.592 89.8967 111.693 91.09 110.75 91.6427H119.168V70L113.329 88.0211Z" fill="#0CAFAF"/>
<path d="M128.582 104.491L124.422 91.6415H113.912L109.75 104.491C108.562 107.516 107.112 109.44 105.59 110.332H132.744C131.219 109.44 129.772 107.516 128.582 104.491Z" fill="#0CAFAF"/>
<path d="M134.604 104.491L127.782 91.6415H111.181L110.748 92.0896L128.359 110.332H141.429C138.932 109.44 136.554 107.516 134.604 104.491Z" fill="#0CAFAF"/>
<path d="M128.582 104.491L124.422 91.6415H113.912L113.009 94.4322L128.36 110.332H132.744C131.219 109.44 129.772 107.516 128.582 104.491Z" fill="#109BAD"/>
<path d="M132.076 123.792L127.721 110.333H110.614L106.253 123.792C104.624 127.938 102.636 130.578 100.546 131.796H137.782C135.696 130.578 133.707 127.938 132.076 123.792Z" fill="#0CAFAF"/>
<path d="M140.335 123.792L133.187 110.333H106.551L105.589 111.329L125.351 131.797H149.693C146.269 130.578 143.007 127.938 140.335 123.792Z" fill="#0CAFAF"/>
<path d="M132.076 123.792L127.721 110.333H110.614L109.11 114.976L125.35 131.796H137.782C135.696 130.578 133.707 127.938 132.076 123.792Z" fill="#109BAD"/>
<path d="M116.966 113.357C115.416 112.804 113.944 111.611 112.736 109.735L103.167 91.7142L93.5974 109.735C92.389 111.611 90.9144 112.804 89.3651 113.357H116.966Z" fill="#0CAFAF"/>
<path d="M103.167 91.7142L93.5974 109.735C92.389 111.611 90.9144 112.804 89.3651 113.357H103.167V91.7142Z" fill="#1BC1A9"/>
<path d="M118.605 126.205L111.782 113.356H94.5522L87.7276 126.205C85.7801 129.23 83.4012 131.155 80.9052 132.046H125.43C122.932 131.155 120.554 129.23 118.605 126.205Z" fill="#1BC1A9"/>
<path d="M111.583 113.357C110.638 112.804 109.739 111.611 109.001 109.735L103.167 91.7142L97.3282 109.735C96.5903 111.611 95.6917 112.804 94.7484 113.357H111.583Z" fill="#109BAD"/>
<path d="M97.3294 109.735C96.5915 111.611 95.6929 112.804 94.7496 113.357H103.168V91.7142L97.3294 109.735Z" fill="#0CAFAF"/>
<path d="M112.582 126.205L108.422 113.356H97.9124L93.7501 126.205C92.5623 129.23 91.1118 131.155 89.5901 132.046H116.744C115.219 131.155 113.772 129.23 112.582 126.205Z" fill="#0CAFAF"/>
<path d="M118.604 126.205L111.782 113.356H95.1811L94.7484 113.804L112.359 132.046H125.429C122.932 131.155 120.554 129.23 118.604 126.205Z" fill="#0CAFAF"/>
<path d="M112.582 126.205L108.422 113.356H97.9123L97.0092 116.146L112.36 132.046H116.744C115.219 131.155 113.772 129.23 112.582 126.205Z" fill="#109BAD"/>
</g>
<defs>
<clipPath id="clip0_245_358">
<rect width="128" height="128" rx="64" fill="white"/>
</clipPath>
</defs>
</svg>
