<svg width="232" height="224" viewBox="0 0 232 224" fill="none" xmlns="http://www.w3.org/2000/svg">
<g clip-path="url(#clip0_319_6051)">
<path d="M-6 151.049C-6 151.049 5 115.5 11 99.5C17 83.5 24 91.8182 26 98C26.8378 100.59 30.304 109.371 33 118.549C36.1007 129.106 34.5 127.549 34.5 127.549L180.5 120.049C180.5 120.049 181.652 113.992 186 98.0494C189 87.0494 190.5 92.5494 192 98.0494C194.731 108.064 197 123.549 199.5 123.549C201.608 123.549 205.536 107.069 209.678 93.0163C210.448 90.4029 217 71 218.5 71C222.5 71 228 96 232 103.049C237.776 113.229 240.5 146.049 240.5 146.049C240.5 146.049 241.965 198.73 222.5 194.049C205.749 190.021 209 152.049 209 152.049L159.5 127.549L34.5 131.549L24 152.549L17 178.549L4 186.549L-6 151.049Z" fill="#8C8CB4"/>
<path d="M34.5 127.549L180.5 120.049C180.5 120.049 181.652 113.992 186 98.0494C189 87.0494 190.5 92.5494 192 98.0494C194.731 108.064 197 123.549 199.5 123.549C201.608 123.549 205.536 107.069 209.678 93.0163C209.678 93.0163 199.5 68.5495 192 49.0495C189.336 42.1241 184.484 42.7896 180.5 49.0495C173.5 60.0495 164 87.0494 159.5 87.0494C155 87.0494 125.617 39.9628 115.5 22.0495C107 6.99997 102.58 9.95055 97.5 19.5C76.6792 58.6431 33 118.549 33 118.549C36.1007 129.106 34.5 127.549 34.5 127.549Z" fill="#C6C3E5"/>
<path fill-rule="evenodd" clip-rule="evenodd" d="M107.329 122.264C106.489 123.282 106.722 133.97 107.604 134.952C108.636 136.1 124.56 136.118 125.904 134.973C127.02 134.024 127.461 123.575 126.438 122.335C125.625 121.349 108.138 121.283 107.329 122.264ZM243.001 131.052C241.501 134.055 228.121 178.418 225.158 188.194C223.459 193.793 222.029 192.256 222.029 192.256C222.029 192.256 217.642 177.941 214.786 168.783C212.849 162.57 210.242 153.845 209.793 152.883C209.14 151.49 202.343 147.665 201.011 147.665C200.526 147.665 200.442 156.267 200.866 162.703L201.14 166.863H203.186C206.386 166.863 206.663 167.526 206.558 174.969C206.484 180.397 206.169 180.978 203.146 181.271L201.011 181.477V193.794C201.011 200.569 201.155 206.108 201.33 206.103C201.505 206.099 202.125 205.718 202.708 205.259C203.291 204.8 203.893 204.421 204.044 204.415C204.196 204.411 206.009 203.624 208.072 202.666C213.394 200.199 214.104 199.926 217.97 198.86C219.02 198.57 220.356 198.166 220.939 197.958C228.662 195.221 249.439 194.914 259.52 197.39C261.034 197.762 262.802 198.171 263.446 198.299C264.091 198.427 264.722 198.701 264.849 198.909C264.976 199.117 265.547 199.286 266.117 199.286C266.686 199.286 269.503 200.302 272.377 201.544C277.592 203.797 277.602 203.799 278.044 202.858C276.501 196.552 269.934 177.068 265.001 160.464C262.501 152.049 260.501 157.549 260.501 160.052C257.256 178.44 249.697 135.871 246.001 130.299C245.501 129.546 244.501 128.049 243.001 131.052ZM33.0002 206.052C33.4407 206.052 33.1213 203.619 33.1213 193.793V181.474C33.0062 181.049 33.1213 163.865 33.1213 156.752C33.1213 151.754 33.0733 147.665 33.014 147.667L33.0002 206.052ZM56.7452 147.732C55.836 148.431 55.8403 148.371 55.9377 158.651L56.0154 166.863H62.1624H68.3094V158.164C68.3094 147.179 68.6327 147.743 62.1624 147.4C58.5835 147.209 57.3241 147.287 56.7452 147.732ZM168.466 147.552C165.492 147.82 165.362 148.285 165.496 158.162L165.61 166.65L171.62 166.767L177.63 166.885L177.776 158.235C177.978 146.388 178.222 146.668 168.466 147.552ZM72.2103 148.177C71.8474 148.543 71.702 151.277 71.702 157.776V166.863H77.6372H83.5724V158.089C83.5724 152.856 83.3959 148.982 83.1333 148.491C82.6025 147.49 73.1618 147.221 72.2103 148.177ZM103.596 148.164C103.216 148.546 103.075 151.16 103.075 157.787V166.887L109.116 166.767L115.159 166.65L115.263 158.33C115.402 147.296 116.552 147.819 110 147.665C106.406 147.581 103.965 147.794 103.596 148.164ZM118.975 148.671C118.429 149.509 118.34 151.09 118.434 158.162L118.55 166.65H124.697H130.846L130.96 158.434C131.055 151.689 130.959 149.989 130.419 148.941L129.764 147.665H124.697C119.842 147.665 119.602 147.706 118.975 148.671ZM150.656 148.164C150.278 148.546 150.135 151.16 150.135 157.787V166.887L156.178 166.767L162.219 166.65L162.324 158.33C162.462 147.296 162.815 147.912 156.263 147.759C152.668 147.675 151.025 147.794 150.656 148.164ZM57.2549 188.289C55.7245 188.86 55.5622 190.159 55.9024 199.073L56.2271 207.606L61.3154 207.729C69.0888 207.918 68.3094 208.946 68.3094 198.491C68.3094 187.59 68.6384 188.17 62.3869 188.058C60.0179 188.016 57.7081 188.12 57.2549 188.289ZM73.2903 188.143C71.3194 188.749 71.253 189.126 71.4888 198.34C71.6116 203.139 71.8164 207.234 71.9435 207.441C72.2456 207.933 83.0274 207.935 83.3282 207.445C83.4538 207.241 83.6543 203.206 83.7729 198.482C83.9988 189.423 83.7757 188.269 81.771 188.167C79.0617 188.029 73.7096 188.015 73.2903 188.143ZM119 188.167C117.545 188.656 118.293 189.372 118.43 199.073L118.55 207.606L124.216 207.725C131.64 207.881 131.057 208.678 131.057 198.381C131.057 189.484 130.792 188.268 128.831 188.167C125.001 187.972 119.843 187.884 119 188.167ZM151.722 188.143C149.751 188.751 149.746 189.13 150.001 198.381C150.133 203.196 150.279 207.281 150.396 207.471C150.749 208.046 161.338 207.896 161.923 207.308C162.828 206.397 162.62 190.218 161.69 189.12C160.984 188.288 153.597 187.565 151.722 188.143ZM166.878 188.337C165.425 188.826 165.355 189.374 165.49 199.073L165.61 207.606L171.122 207.712C174.153 207.772 176.844 207.675 177.101 207.499C178.016 206.871 178.276 190.183 177.388 189.134C176.559 188.156 169.097 187.589 166.878 188.337ZM103.276 189.218C102.694 190.112 102.653 191.361 102.948 198.924L103.287 207.606L108.739 207.725C112.397 207.806 114.387 207.684 114.782 207.353C115.695 206.59 115.632 190.467 114.71 189.143C113.655 187.627 104.271 187.69 103.276 189.218Z" fill="#54506F"/>
<rect x="62" y="147" width="1" height="20" fill="#A45E46"/>
<rect x="62" y="188" width="1" height="20" fill="#A45E46"/>
<rect x="77" y="188" width="1" height="20" fill="#A45E46"/>
<rect x="109" y="188" width="1" height="20" fill="#A45E46"/>
<rect x="124" y="188" width="1" height="20" fill="#A45E46"/>
<rect x="156" y="188" width="1" height="20" fill="#A45E46"/>
<rect x="171" y="188" width="1" height="20" fill="#A45E46"/>
<rect x="77" y="147" width="1" height="20" fill="#A45E46"/>
<rect x="109" y="147" width="1" height="20" fill="#A45E46"/>
<rect x="124" y="147" width="1" height="20" fill="#A45E46"/>
<rect x="156" y="147" width="1" height="20" fill="#A45E46"/>
<rect x="117" y="119" width="1" height="20" fill="#A45E46"/>
<rect x="171" y="147" width="1" height="20" fill="#A45E46"/>
<rect x="70.1724" y="156.098" width="1" height="17.167" transform="rotate(90.3268 70.1724 156.098)" fill="#A45E46"/>
<rect x="70.1724" y="197.098" width="1" height="17.167" transform="rotate(90.3268 70.1724 197.098)" fill="#A45E46"/>
<rect x="85.1724" y="197.098" width="1" height="17.167" transform="rotate(90.3268 85.1724 197.098)" fill="#A45E46"/>
<rect x="117.172" y="197.098" width="1" height="17.167" transform="rotate(90.3268 117.172 197.098)" fill="#A45E46"/>
<rect x="132.172" y="197.098" width="1" height="17.167" transform="rotate(90.3268 132.172 197.098)" fill="#A45E46"/>
<rect x="164.172" y="197.098" width="1" height="17.167" transform="rotate(90.3268 164.172 197.098)" fill="#A45E46"/>
<rect x="179.172" y="197.098" width="1" height="17.167" transform="rotate(90.3268 179.172 197.098)" fill="#A45E46"/>
<rect x="85.1724" y="156.098" width="1" height="17.167" transform="rotate(90.3268 85.1724 156.098)" fill="#A45E46"/>
<rect x="117.172" y="156.098" width="1" height="17.167" transform="rotate(90.3268 117.172 156.098)" fill="#A45E46"/>
<rect x="132.172" y="156.098" width="1" height="17.167" transform="rotate(90.3268 132.172 156.098)" fill="#A45E46"/>
<rect x="164.172" y="156.098" width="1" height="17.167" transform="rotate(90.3268 164.172 156.098)" fill="#A45E46"/>
<rect x="127.637" y="128.112" width="1" height="21.3792" transform="rotate(90.3268 127.637 128.112)" fill="#A45E46"/>
<rect x="179.172" y="156.098" width="1" height="17.167" transform="rotate(90.3268 179.172 156.098)" fill="#A45E46"/>
<path d="M103 13.0493C103 30.9986 87.9625 45.2468 82.5 62.9999C76.5 82.5 104.804 68.2592 102 76.9999C93.5 103.5 82.5 118.049 82.5 118.049L26 147.049C26 147.049 29.1786 129.17 32.5 118.049C35.8214 106.929 103 3.99988 103 13.0493Z" fill="#E3E1F9"/>
<path fill-rule="evenodd" clip-rule="evenodd" d="M58.8767 93.0901C58.4687 93.3302 58.1341 93.7223 58.1341 93.961C58.1341 94.2011 58.4348 94.096 58.8005 93.7266C59.5346 92.9879 79.3946 92.7037 80.5113 93.4155C81.3541 93.9539 81.0506 105.846 80.1809 106.335C79.8308 106.531 76.3973 108.209 72.5487 110.063C68.7015 111.917 64.1385 114.129 62.4105 114.977C60.681 115.826 59.0123 116.521 58.7002 116.521C58.3896 116.521 58.1341 116.709 58.1341 116.937C58.1341 117.58 58.5577 117.392 74.7751 109.547L81.453 106.318V99.915C81.453 94.0221 81.388 93.478 80.6327 93.0717C79.5414 92.4835 59.8819 92.5006 58.8767 93.0901ZM110.494 109.475C107.93 110.725 103.256 112.988 100.107 114.504C96.9589 116.02 91.8086 118.512 88.6603 120.042C85.5119 121.573 81.124 123.687 78.9089 124.743C76.6938 125.797 71.7327 128.189 67.8855 130.06C64.0383 131.93 59.3638 134.191 57.4988 135.085C55.6324 135.98 50.1009 138.658 45.2034 141.039C40.3072 143.419 35.6807 145.642 34.9226 145.98C34.1644 146.317 33.5446 146.744 33.5446 146.93C33.5446 147.117 33.8778 147.091 34.2858 146.875C36.5631 145.67 43.3807 142.545 43.7308 142.545C43.9581 142.545 44.1431 142.353 44.1431 142.119C44.1431 141.884 44.3351 141.693 44.5709 141.693C44.9676 141.693 47.5696 140.475 59.6179 134.65C62.1832 133.41 66.5711 131.298 69.3693 129.954C72.1675 128.61 77.3192 126.116 80.8163 124.413C84.3147 122.708 89.2744 120.307 91.8397 119.077C94.4049 117.847 99.174 115.541 102.44 113.954C105.704 112.367 109.805 110.415 111.554 109.617C113.303 108.818 115.211 107.946 115.794 107.679C116.696 107.266 116.728 107.193 116.006 107.197C115.54 107.2 113.059 108.224 110.494 109.475ZM117.489 107.449C118.243 107.74 126.024 111.458 134.025 115.348C137.173 116.879 141.561 118.993 143.776 120.047C147.598 121.864 156.287 126.065 165.61 130.601C167.942 131.736 172.139 133.76 174.937 135.099C177.736 136.437 182.887 138.925 186.384 140.624C189.883 142.325 194.271 144.439 196.136 145.319C198.001 146.202 199.671 147.006 199.846 147.107C200.021 147.206 200.164 147.085 200.164 146.837C200.164 146.588 199.996 146.385 199.791 146.385C199.586 146.385 195.723 144.586 191.206 142.387C174.536 134.272 171.048 132.585 167.73 131.026C165.865 130.15 161.762 128.181 158.614 126.651C155.467 125.12 150.506 122.715 147.592 121.309C144.677 119.901 139.24 117.271 135.508 115.466C131.777 113.66 127.866 111.788 126.817 111.306C125.768 110.824 123.401 109.689 121.558 108.783C119.716 107.876 117.903 107.15 117.53 107.169C116.954 107.197 116.949 107.239 117.489 107.449ZM103.268 128.04C102.092 128.627 98.6573 130.297 95.6374 131.752C92.6162 133.207 86.1374 136.344 81.2412 138.722C70.7585 143.815 67.517 145.346 66.5076 145.683C65.6365 145.974 65.5094 146.811 66.3367 146.811C68.549 146.811 68.758 147.807 68.6366 157.747L68.5222 167.076H61.9502H55.3783L55.1665 159.397C55.0366 154.692 54.7909 151.722 54.5312 151.73C54.2982 151.737 51.4365 153.051 48.171 154.65C44.9069 156.251 40.2804 158.516 37.8902 159.687L33.5446 161.812V164.109C33.5446 166.727 32.9813 167.29 30.3624 167.29C27.8212 167.29 27.6094 167.81 27.6094 174.018C27.6094 178.816 27.7096 179.621 28.3845 180.235C29.1003 180.887 35.8558 180.941 116.97 180.941H204.779L205.439 179.994C205.948 179.262 206.099 177.864 206.099 173.873C206.099 168.061 205.756 167.29 203.176 167.29C200.819 167.29 200.164 166.662 200.157 164.395C200.148 161.803 200.165 161.82 195.924 159.739C189.663 156.665 178.879 151.504 178.717 151.504C178.631 151.504 178.508 155.008 178.444 159.29L178.329 167.076L172.393 167.199C163.633 167.38 164.551 168.461 164.551 157.958C164.551 148.444 164.954 146.811 167.311 146.811C168.504 146.811 167.558 146.013 164.849 144.73C163.401 144.045 158.975 141.913 155.011 139.991C151.047 138.07 146.087 135.672 143.988 134.663C141.89 133.653 137.5 131.513 134.236 129.91C130.972 128.304 128.158 126.923 127.983 126.839C127.808 126.757 127.666 128.442 127.666 130.584C127.666 136.611 127.734 136.572 116.854 136.572C106.148 136.572 106.047 136.521 106.037 131.153C106.028 126.888 105.89 126.733 103.268 128.04ZM83.5636 147.753C84.3966 148.654 84.4319 149.115 84.3218 157.887L84.2088 167.076L77.9065 167.195C69.7406 167.348 70.4296 168.222 70.4296 157.701C70.4296 146.453 70.1938 146.811 77.6002 146.811C82.3057 146.811 82.7575 146.882 83.5636 147.753ZM114.89 147.615C115.79 148.401 115.808 148.632 115.696 157.747L115.582 167.076L109.28 167.195C101.134 167.347 101.803 168.161 101.803 158.114C101.803 146.695 101.718 146.828 109.051 146.818C113.265 146.813 114.1 146.926 114.89 147.615ZM130.625 147.753C131.456 148.654 131.492 149.115 131.383 157.887L131.269 167.076L125.333 167.199C116.586 167.38 117.489 168.405 117.489 158.301C117.489 146.487 117.23 146.896 124.787 146.845C129.385 146.814 129.816 146.881 130.625 147.753ZM161.998 147.753C162.831 148.654 162.865 149.115 162.756 157.887L162.642 167.076L156.286 167.195C148.241 167.345 148.864 168.133 148.864 157.801C148.864 146.561 148.64 146.896 156.16 146.845C160.759 146.814 161.189 146.881 161.998 147.753ZM68.9599 197.229C68.8328 197.775 68.6832 200.427 68.6253 203.126L68.5222 208.032L62.4317 208.151C54.8008 208.299 55.223 208.646 55.0733 202.125L54.9547 196.939L44.249 196.826L33.5446 196.712L33.4811 201.412C33.4458 203.997 33.3978 206.353 33.3752 206.645C33.3441 207.023 34.5682 207.256 37.5725 207.447C45.7074 207.958 53.3396 210.38 59.0221 214.25C62.3865 216.543 68.1693 222.129 68.4841 223.392C68.7707 224.543 69.5811 224.861 69.5811 223.824C69.5811 223.474 67.9603 221.535 65.9781 219.514C63.9959 217.492 62.3738 215.762 62.3738 215.668C62.3738 215.574 68.1933 215.499 75.3045 215.499H88.2367V219.978V224.458H93.2289H98.221L98.0559 219.974L97.8907 215.489L116.7 215.6L135.508 215.712L135.484 220.085L135.462 224.458H140.371H145.281L145.116 219.978L144.952 215.499H163.91H182.867L182.664 219.018C182.553 220.954 182.32 222.97 182.147 223.497C181.627 225.093 182.515 224.553 183.326 222.781C184.539 220.132 191.453 213.536 197.175 209.569L200.31 207.395L200.203 202.392C200.144 199.64 200.004 197.24 199.892 197.057C199.781 196.875 194.931 196.726 189.115 196.726H178.542V201.974C178.542 208.609 178.947 208.245 171.546 208.245C164.144 208.245 164.551 208.609 164.551 201.974C164.551 197.037 164.501 196.726 163.715 196.726C162.931 196.726 162.872 197.079 162.76 202.379L162.642 208.032L156.541 208.151C148.577 208.306 148.864 208.543 148.864 201.78V196.726H140.172H131.48V202.227C131.48 208.785 132.123 208.245 124.324 208.245C117.104 208.245 117.489 208.602 117.489 201.943C117.489 197.145 117.422 196.676 116.748 196.807C116.1 196.932 115.979 197.652 115.794 202.491L115.582 208.032L109.482 208.151C101.516 208.306 101.803 208.543 101.803 201.78V196.726H93.1117H84.4206V202.227C84.4206 208.775 85.0319 208.245 77.4717 208.245C70.143 208.245 70.4761 208.542 70.3321 201.88C70.222 196.779 69.5726 194.581 68.9599 197.229Z" fill="#E49963"/>
<path fill-rule="evenodd" clip-rule="evenodd" d="M58.0003 92.5504C57.0798 93.4766 57.084 117.05 58.0003 117.05C58.3123 117.05 60.6813 115.824 62.4108 114.975C64.1388 114.127 69.1531 112.904 73.0003 111.05C76.8489 109.196 81.1502 106.246 81.5003 106.05C82.37 105.562 81.8432 93.0887 81.0003 92.5503C79.8836 91.8385 58.7344 91.8116 58.0003 92.5504ZM115.794 107.705C113.024 108.902 107.837 111.328 102.44 113.952C99.1743 115.539 94.4052 117.845 91.8399 119.075C89.2747 120.305 84.315 122.706 80.8165 124.411C77.3195 126.114 72.1678 128.608 69.3696 129.952C66.5714 131.296 62.1835 133.408 59.6182 134.648C47.5698 140.473 44.9679 141.691 44.5712 141.691C44.3354 141.691 44.1434 141.882 44.1434 142.117C44.1434 142.351 43.9599 142.543 43.7354 142.543C43.5109 142.543 41.0303 143.635 38.2237 144.969L33.1214 147.396V156.454C33.1214 161.435 32.9929 165.846 32.8362 166.257C32.6428 166.764 32.7106 166.903 33.0494 166.693C33.3275 166.519 33.5449 165.383 33.5449 164.097V161.81L37.8905 159.685C40.2807 158.514 44.9072 156.249 48.1713 154.648C51.4368 153.049 54.2985 151.735 54.5315 151.728C54.7912 151.72 55.0369 154.69 55.1668 159.395L55.3786 167.074H61.9505H68.5225L68.6369 157.745C68.7583 147.805 68.5493 146.809 66.337 146.809C65.5097 146.809 65.6368 145.972 66.5078 145.681C67.4679 145.36 71.4082 143.498 80.6048 139.018C84.6863 137.032 89.9326 134.489 92.2635 133.368C94.5958 132.247 98.5503 130.342 101.051 129.135C106.24 126.629 106.043 126.543 106.043 131.293C106.043 136.497 106.195 136.57 116.854 136.57C127.734 136.57 127.666 136.609 127.666 130.582C127.666 128.44 127.809 126.755 127.984 126.837C128.159 126.921 130.972 128.302 134.237 129.908C137.501 131.511 141.89 133.651 143.988 134.661C146.087 135.67 151.047 138.068 155.011 139.989C158.976 141.911 163.402 144.043 164.849 144.728C167.558 146.011 168.504 146.809 167.311 146.809C164.955 146.809 164.551 148.442 164.551 157.956C164.551 168.459 163.633 167.378 172.394 167.197L178.329 167.074L178.445 159.288C178.508 155.006 178.631 151.502 178.717 151.502C178.879 151.502 189.663 156.663 195.924 159.737C200.162 161.818 200.148 161.803 200.157 164.383C200.161 165.484 200.386 166.522 200.657 166.69C201.024 166.919 201.079 165.928 200.87 162.769C200.717 160.443 200.592 156.041 200.59 152.983L200.587 147.424L197.514 145.977C195.824 145.181 190.911 142.816 186.596 140.722C182.283 138.628 176.75 135.957 174.302 134.787C171.853 133.617 167.942 131.733 165.61 130.598C155.771 125.813 147.546 121.838 143.776 120.045C141.561 118.993 136.983 116.783 133.601 115.138C116.708 106.92 117.168 107.112 115.794 107.705ZM126.438 122.333C127.461 123.573 127.019 134.022 125.904 134.971C124.56 136.116 108.636 136.097 107.604 134.949C106.722 133.968 106.489 123.28 107.329 122.261C108.138 121.281 125.625 121.347 126.438 122.333ZM71.0003 148.05C69.7325 149.428 69.8058 165.808 71.0172 166.821C71.4167 167.154 73.6205 167.272 77.9068 167.193L84.2091 167.074L84.3221 157.885C84.4675 146.18 84.8501 146.809 77.6004 146.809C72.6393 146.809 72.014 146.949 71.0003 148.05ZM103.578 147.179C102.066 148.143 101.803 149.758 101.803 158.112C101.803 168.159 101.134 167.345 109.28 167.193L115.582 167.074L116 157.745C116.143 146.13 116.553 146.806 109.355 146.816C106.651 146.819 103.884 146.982 103.578 147.179ZM119.283 147.095C117.793 147.698 117.49 149.595 117.49 158.299C117.49 168.403 116.586 167.378 125.334 167.197L131.269 167.074L131.383 157.885C131.529 146.191 131.889 146.795 124.787 146.843C122.057 146.862 119.579 146.975 119.283 147.095ZM150.656 147.095C149.186 147.69 148.864 149.618 148.864 157.799C148.864 168.131 148.242 167.343 156.286 167.193L162.642 167.074L162.757 157.885C162.902 146.191 163.262 146.795 156.161 146.843C153.43 146.862 150.952 146.975 150.656 147.095ZM67.5003 148.55C68.1526 149.352 68.3093 150.509 68.3093 158.162V166.86H62.1623H56.0153L55.9376 158.649C55.8402 148.369 55.836 148.429 56.7452 147.73C58.5003 147.05 66.5431 147.378 67.5003 148.55ZM176.5 147.757C177.563 148.471 177.915 149.996 177.775 158.233L177.63 166.883L171.62 166.765L165.61 166.647L165.495 158.16C165.361 148.282 165.491 147.818 168.466 147.549C171.863 147.241 176.033 147.443 176.5 147.757ZM83.1333 148.488C83.3959 148.98 83.5724 152.854 83.5724 158.086V166.86H77.6372H71.7019V157.774C71.7019 151.274 71.8473 148.541 72.2101 148.174C73.1617 147.218 82.6025 147.488 83.1333 148.488ZM114.827 148.943C115.222 149.722 115.34 152.252 115.263 158.328L115.159 166.647L109.116 166.765L103.075 166.885V157.785C103.075 146.779 102.573 147.602 109.202 147.757C114.147 147.873 114.302 147.906 114.827 148.943ZM130.419 148.939C130.958 149.987 131.054 151.686 130.96 158.432L130.845 166.647H124.697H118.55L118.434 158.16C118.285 147.071 117.932 147.663 124.697 147.663H129.764L130.419 148.939ZM161.5 149.55C161.896 150.329 162.399 152.252 162.323 158.328L162.219 166.647L156.178 166.765L150.135 166.885V157.785C150.135 146.779 149.634 147.602 156.262 147.757C161.206 147.873 160.975 148.513 161.5 149.55ZM32.5905 181.222C32.9943 181.387 33.1426 184.394 33.2117 193.88C33.2611 200.725 33.3628 204.16 33.4376 201.518L33.5732 196.71L44.2634 196.824L54.955 196.937L55.0736 202.123C55.2233 208.644 54.8011 208.297 62.432 208.149L68.5225 208.03L68.7343 202.411C68.8501 199.321 69.0759 196.662 69.2355 196.503C70.1051 195.633 68.6518 196.894 69.5814 202.411C69.5814 208.881 70.091 208.243 77.575 208.243C85.0181 208.243 84.4209 208.769 84.4209 202.225V196.724H93.112H101.803V201.778C101.803 208.541 101.516 208.304 109.482 208.149L115.582 208.03L115.794 202.489C115.979 197.65 116.1 196.93 116.748 196.805C117.422 196.674 117.49 197.143 117.49 201.941C117.49 208.6 117.104 208.243 124.324 208.243C132.123 208.243 131.481 208.783 131.481 202.225V196.724H140.172H148.864V201.778C148.864 208.541 148.578 208.304 156.542 208.149L162.642 208.03L162.761 202.377C162.872 197.077 162.932 196.724 163.715 196.724C164.502 196.724 164.551 197.035 164.551 201.972C164.551 208.607 164.144 208.243 171.546 208.243C178.947 208.243 178.542 208.608 178.542 201.965V196.71L189.246 196.824L199.952 196.937L200.167 201.844C199.952 214.05 202 209.05 201.113 193.205L201.224 180.939L116.643 180.973C70.1221 180.992 32.2997 181.104 32.5905 181.222ZM67.5018 188.868C68.2472 189.547 68.3093 190.293 68.3093 198.489C68.3093 208.943 69.0886 207.916 61.3152 207.727L56.2271 207.604L55.9023 199.071C55.5621 190.156 55.9699 189.703 57.5003 189.132C59.2171 188.491 66.6377 188.081 67.5018 188.868ZM80.8165 188.959C82.8213 189.061 83.9988 189.421 83.7729 198.48C83.6543 203.204 83.4538 207.239 83.3281 207.443C83.0274 207.933 72.2454 207.93 71.9433 207.439C71.8163 207.231 71.6115 203.137 71.4887 198.338C71.5003 187.05 69.7127 188.395 80.8165 188.959ZM127.984 188.868C129.945 188.969 131.057 189.482 131.057 198.379C131.057 208.676 131.64 207.879 124.216 207.723L118.55 207.604L118.43 199.071C118.259 186.977 116.821 188.301 127.984 188.868ZM161.887 189.132C161.887 190.05 162.827 206.395 161.922 207.305C161.338 207.893 150.801 207.626 150.448 207.05C150 205.05 149.728 189.59 150.448 188.959C152.051 187.554 160 188.192 161.887 189.132ZM177.387 189.132C178.275 190.181 178.015 206.869 177.101 207.497C176.844 207.673 174.153 207.77 171.122 207.71L165.61 207.604L165.49 199.071C165.354 189.372 165.425 188.824 166.878 188.335C169.097 187.586 176.558 188.153 177.387 189.132ZM114.827 190.05C115.749 191.374 115.695 206.588 114.782 207.351C114.387 207.682 112.397 207.804 108.739 207.723L103.287 207.604L102.948 198.922C102.505 187.585 104.254 188.192 108.996 188.192C113.739 188.192 114.209 189.16 114.827 190.05ZM62.3741 215.666C62.3741 215.76 63.9962 217.49 65.9784 219.512C67.9606 221.533 69.5814 223.472 69.5814 223.822C69.5814 224.363 70.9424 224.456 78.9092 224.456H88.237V219.976V215.497H75.3048C68.1935 215.497 62.3741 215.572 62.3741 215.666ZM97.994 219.012C97.9968 220.949 98.114 222.968 98.2552 223.495L98.5107 224.456H116.877H135.245L135.511 222.643C135.657 221.646 135.716 219.676 135.643 218.269L135.509 215.71L116.748 215.598L97.9869 215.487L97.994 219.012ZM145.054 219.016C145.057 220.952 145.175 222.968 145.315 223.495L145.571 224.456H163.686H181.799L182.29 222.806C182.56 221.898 182.782 219.882 182.782 218.327V215.497H163.914H145.048L145.054 219.016Z" fill="#A45E46"/>
<path d="M-52 174.549L-10.8727 208.049L36 209.549L35 145.049L0.200001 148.049L-52 174.549Z" fill="#54506F"/>
<path d="M67.8572 96.9998C70.6975 96.9998 73.0001 94.6973 73.0001 91.857C73.0001 89.0167 70.6975 86.7141 67.8572 86.7141C65.0169 86.7141 62.7144 89.0167 62.7144 91.857C62.7144 94.6973 65.0169 96.9998 67.8572 96.9998Z" fill="#8C8CB4"/>
<path d="M73.5142 74.8856C76.3545 74.8856 78.6571 72.583 78.6571 69.7427C78.6571 66.9024 76.3545 64.5999 73.5142 64.5999C70.6739 64.5999 68.3713 66.9024 68.3713 69.7427C68.3713 72.583 70.6739 74.8856 73.5142 74.8856Z" fill="#8C8CB4"/>
<path d="M79.1714 80.0284C82.0118 80.0284 84.3143 77.7259 84.3143 74.8855C84.3143 72.0452 82.0118 69.7427 79.1714 69.7427C76.3311 69.7427 74.0286 72.0452 74.0286 74.8855C74.0286 77.7259 76.3311 80.0284 79.1714 80.0284Z" fill="#8C8CB4"/>
<path d="M73.5143 90.8285C77.7748 90.8285 81.2287 87.3747 81.2287 83.1142C81.2287 78.8537 77.7748 75.3999 73.5143 75.3999C69.2539 75.3999 65.8 78.8537 65.8 83.1142C65.8 87.3747 69.2539 90.8285 73.5143 90.8285Z" fill="#8C8CB4"/>
<path d="M83.2858 72.8285C87.5463 72.8285 91.0001 69.3747 91.0001 65.1142C91.0001 60.8537 87.5463 57.3999 83.2858 57.3999C79.0253 57.3999 75.5715 60.8537 75.5715 65.1142C75.5715 69.3747 79.0253 72.8285 83.2858 72.8285Z" fill="#8C8CB4"/>
<path d="M70.9173 85.1201C75.2914 85.1201 78.8373 81.5741 78.8373 77.2C78.8373 72.8259 75.2914 69.28 70.9173 69.28C66.5432 69.28 62.9973 72.8259 62.9973 77.2C62.9973 81.5741 66.5432 85.1201 70.9173 85.1201Z" fill="#8C8CB4"/>
<path d="M183.5 45.5493C193.356 37.9938 178.5 68.0493 176.5 75.5493C174.9 81.5493 181.702 87.8845 185.5 91.0493C188.5 93.5493 180.5 118.549 180.5 118.549L154.5 107.549C154.5 107.549 157.209 94.8542 160 87.0493C165.562 71.4948 177.5 53.5493 180 49.5493C181.464 47.2077 182.5 46.3159 183.5 45.5493Z" fill="#E3E1F9"/>
<path d="M33 167.049C30.2386 167.049 28 169.288 28 172.049V176.049C28 178.811 30.2386 181.049 33 181.049H201C203.761 181.049 206 178.811 206 176.049V172.049C206 169.288 203.761 167.049 201 167.049H33Z" fill="white" stroke="white" stroke-linejoin="round"/>
<path d="M58 92C57.4477 92 57 92.4477 57 93V96C57 96.5523 57.4477 97 58 97H81C81.5523 97 82 96.5523 82 96V93C82 92.4477 81.5523 92 81 92H58Z" fill="white" stroke="white" stroke-linejoin="round"/>
<path d="M12.2244 139.848C9.24924 141.307 8.02028 144.902 9.47944 147.877L11.3837 151.76C12.8428 154.735 16.4375 155.964 19.4127 154.505L121.252 104.558C124.227 103.099 125.456 99.5043 123.997 96.5292L122.093 92.6465C120.633 89.6713 117.039 88.4424 114.063 89.9015L12.2244 139.848Z" fill="white" stroke="white" stroke-linejoin="round"/>
<path d="M121.479 90.5988C118.492 89.1635 114.907 90.4212 113.472 93.408L111.599 97.3058C110.163 100.293 111.421 103.877 114.408 105.313L216.357 154.303C219.344 155.739 222.928 154.481 224.364 151.494L226.237 147.596C227.672 144.61 226.414 141.025 223.427 139.59L121.479 90.5988Z" fill="white" stroke="white" stroke-linejoin="round"/>
<path d="M241 160.375C238.192 159.408 235.524 157.319 233.334 154.037L215.991 122.5L198.645 154.037C196.455 157.319 193.782 159.408 190.974 160.375H241Z" fill="#0CAFAF"/>
<path d="M215.991 122.5L198.645 154.037C196.455 157.319 193.782 159.408 190.974 160.375H215.991V122.5Z" fill="#1BC1A9"/>
<path d="M243.971 182.859L231.605 160.373H200.376L188.006 182.859C184.476 188.153 180.165 191.521 175.641 193.081H256.343C251.814 191.521 247.505 188.153 243.971 182.859Z" fill="#1BC1A9"/>
<path d="M254.358 216.637L241.402 193.083H190.573L177.617 216.637C172.774 223.892 166.863 228.511 160.656 230.643H271.318C265.112 228.511 259.2 223.892 254.358 216.637Z" fill="#1BC1A9"/>
<path d="M231.245 160.375C229.531 159.408 227.903 157.319 226.565 154.037L215.991 122.5L205.408 154.037C204.07 157.319 202.441 159.408 200.732 160.375H231.245Z" fill="#109BAD"/>
<path d="M205.409 154.037C204.072 157.319 202.443 159.408 200.734 160.375H215.993V122.5L205.409 154.037Z" fill="#0CAFAF"/>
<path d="M233.055 182.859L225.515 160.373H206.466L198.922 182.859C196.769 188.153 194.14 191.521 191.382 193.081H240.599C237.835 191.521 235.212 188.153 233.055 182.859Z" fill="#0CAFAF"/>
<path d="M243.971 182.859L231.605 160.373H201.516L200.732 161.157L232.651 193.081H256.34C251.814 191.521 247.505 188.153 243.971 182.859Z" fill="#0CAFAF"/>
<path d="M233.055 182.859L225.515 160.373H206.466L204.829 165.256L232.654 193.081H240.599C237.835 191.521 235.212 188.153 233.055 182.859Z" fill="#109BAD"/>
<path d="M239.388 216.637L231.495 193.083H200.488L192.584 216.637C189.631 223.892 186.028 228.511 182.24 230.643H249.73C245.949 228.511 242.344 223.892 239.388 216.637Z" fill="#0CAFAF"/>
<path d="M254.358 216.637L241.402 193.083H193.123L191.38 194.826L227.2 230.645H271.318C265.112 228.511 259.2 223.892 254.358 216.637Z" fill="#0CAFAF"/>
<path d="M239.389 216.637L231.495 193.083H200.488L197.761 201.207L227.198 230.643H249.73C245.949 228.511 242.344 223.892 239.389 216.637Z" fill="#109BAD"/>
<path d="M212 198.375C209.192 197.408 206.524 195.319 204.334 192.037L186.991 160.5L169.645 192.037C167.455 195.319 164.782 197.408 161.974 198.375H212Z" fill="#0CAFAF"/>
<path d="M186.991 160.5L169.645 192.037C167.455 195.319 164.782 197.408 161.974 198.375H186.991V160.5Z" fill="#1BC1A9"/>
<path d="M214.971 220.859L202.605 198.373H171.376L159.006 220.859C155.476 226.153 151.165 229.521 146.641 231.081H227.343C222.814 229.521 218.505 226.153 214.971 220.859Z" fill="#1BC1A9"/>
<path d="M202.245 198.375C200.531 197.408 198.903 195.319 197.565 192.037L186.991 160.5L176.408 192.037C175.07 195.319 173.441 197.408 171.732 198.375H202.245Z" fill="#109BAD"/>
<path d="M176.409 192.037C175.072 195.319 173.443 197.408 171.734 198.375H186.993V160.5L176.409 192.037Z" fill="#0CAFAF"/>
<path d="M204.055 220.859L196.515 198.373H177.466L169.922 220.859C167.769 226.153 165.14 229.521 162.382 231.081H211.599C208.835 229.521 206.212 226.153 204.055 220.859Z" fill="#0CAFAF"/>
<path d="M214.971 220.859L202.605 198.373H172.516L171.732 199.157L203.651 231.081H227.34C222.814 229.521 218.505 226.153 214.971 220.859Z" fill="#0CAFAF"/>
<path d="M204.055 220.859L196.515 198.373H177.466L175.829 203.256L203.654 231.081H211.599C208.835 229.521 206.212 226.153 204.055 220.859Z" fill="#109BAD"/>
<path d="M47.0005 192.375C44.1925 191.408 41.5238 189.319 39.3336 186.037L21.9905 154.5L4.64541 186.037C2.45517 189.319 -0.217634 191.408 -3.02563 192.375H47.0005Z" fill="#0CAFAF"/>
<path d="M21.9905 154.5L4.6454 186.037C2.45516 189.319 -0.217635 191.408 -3.02563 192.375H21.9905V154.5Z" fill="#1BC1A9"/>
<path d="M49.9707 214.859L37.6051 192.373H6.37598L-5.99378 214.859C-9.52354 220.153 -13.8354 223.521 -18.3594 225.081H62.3425C57.8144 223.521 53.5046 220.153 49.9707 214.859Z" fill="#1BC1A9"/>
<path d="M37.2453 192.375C35.5314 191.408 33.9027 189.319 32.5653 186.037L21.9906 154.5L11.4075 186.037C10.0701 189.319 8.44145 191.408 6.73169 192.375H37.2453Z" fill="#109BAD"/>
<path d="M11.4095 186.037C10.072 189.319 8.4434 191.408 6.73364 192.375H21.9925V154.5L11.4095 186.037Z" fill="#0CAFAF"/>
<path d="M39.0549 214.859L31.5149 192.373H12.4662L4.92208 214.859C2.76928 220.153 0.14016 223.521 -2.61792 225.081H46.599C43.8347 223.521 41.2118 220.153 39.0549 214.859Z" fill="#0CAFAF"/>
<path d="M49.9707 214.859L37.6051 192.373H7.51585L6.73169 193.157L38.6514 225.081H62.3405C57.8144 223.521 53.5046 220.153 49.9707 214.859Z" fill="#0CAFAF"/>
<path d="M39.0549 214.859L31.5149 192.373H12.4663L10.8293 197.256L38.6535 225.081H46.5991C43.8348 223.521 41.2119 220.153 39.0549 214.859Z" fill="#109BAD"/>
<path d="M72.0005 210.375C69.1925 209.408 66.5238 207.319 64.3336 204.037L46.9905 172.5L29.6454 204.037C27.4552 207.319 24.7824 209.408 21.9744 210.375H72.0005Z" fill="#0CAFAF"/>
<path d="M46.9905 172.5L29.6454 204.037C27.4552 207.319 24.7824 209.408 21.9744 210.375H46.9905V172.5Z" fill="#1BC1A9"/>
<path d="M74.9707 232.859L62.6051 210.373H31.376L19.0062 232.859C15.4765 238.153 11.1646 241.521 6.64062 243.081H87.3425C82.8144 241.521 78.5046 238.153 74.9707 232.859Z" fill="#1BC1A9"/>
<path d="M62.2453 210.375C60.5314 209.408 58.9027 207.319 57.5653 204.037L46.9906 172.5L36.4075 204.037C35.0701 207.319 33.4414 209.408 31.7317 210.375H62.2453Z" fill="#109BAD"/>
<path d="M36.4095 204.037C35.072 207.319 33.4434 209.408 31.7336 210.375H46.9925V172.5L36.4095 204.037Z" fill="#0CAFAF"/>
<path d="M64.0549 232.859L56.5149 210.373H37.4662L29.9221 232.859C27.7693 238.153 25.1402 241.521 22.3821 243.081H71.599C68.8347 241.521 66.2118 238.153 64.0549 232.859Z" fill="#0CAFAF"/>
<path d="M74.9707 232.859L62.6051 210.373H32.5158L31.7317 211.157L63.6514 243.081H87.3405C82.8144 241.521 78.5046 238.153 74.9707 232.859Z" fill="#0CAFAF"/>
<path d="M64.0549 232.859L56.5149 210.373H37.4663L35.8293 215.256L63.6535 243.081H71.5991C68.8348 241.521 66.2119 238.153 64.0549 232.859Z" fill="#109BAD"/>
</g>
<defs>
<clipPath id="clip0_319_6051">
<rect width="232" height="224" rx="24" fill="white"/>
</clipPath>
</defs>
</svg>
