<svg width="278" height="233" viewBox="0 0 278 233" fill="none" xmlns="http://www.w3.org/2000/svg">
<path d="M185.389 100.421C181.996 118.803 185.536 120.243 196.009 104.74C211.571 81.8533 230.305 62.9905 252.21 48.1513C254.436 46.6252 257.01 45.6857 259.695 45.4198C262.38 45.1539 265.089 45.57 267.57 46.6298C270.052 47.6897 272.226 49.359 273.892 51.4832C275.559 53.6073 276.662 56.1178 277.102 58.7823C286.063 113.045 225.99 195.657 185.057 218.802C98.7643 267.638 30.5046 180.707 2.29357 106.401C-7.1101 81.8163 13.9099 61.4402 37.9169 71.296C63.2146 81.6317 85.8203 97.246 105.734 118.139C106.426 118.834 107.3 119.319 108.256 119.538C109.211 119.757 110.209 119.701 111.134 119.377C112.059 119.053 112.874 118.474 113.485 117.706C114.095 116.938 114.476 116.013 114.584 115.038C118.493 72.8094 129.889 37.4464 148.77 8.94934C150.638 6.09913 153.208 3.77931 156.233 2.21388C159.259 0.648444 162.636 -0.109662 166.039 0.0127974C169.442 0.135256 172.757 1.13411 175.661 2.91293C178.567 4.69175 180.964 7.19038 182.623 10.1675C196.784 35.3055 190.367 73.0677 185.389 100.421Z" fill="#7DB286"/>
</svg>
