<svg width="260" height="277" viewBox="0 0 260 277" fill="none" xmlns="http://www.w3.org/2000/svg">
<path fill-rule="evenodd" clip-rule="evenodd" d="M147.659 101.624L148.209 90.6226C140.874 90.9893 138.094 87.9946 139.866 81.6383C150.99 41.3005 138.583 14.9892 102.645 2.70447C91.9496 -0.90149 81.4066 -0.90149 71.0166 2.70447C69.1702 3.33788 67.4739 4.35855 66.037 5.70073C64.6001 7.04291 63.4546 8.67678 62.6741 10.497C48.9226 42.6756 37.3712 71.6455 71.1084 97.4984C72.348 98.383 73.2268 99.685 73.5835 101.165C74.5003 104.833 73.6142 107.461 70.925 109.05C68.7858 110.333 66.5244 110.608 64.1408 109.875C34.8959 100.89 15.2771 125.918 3.63413 150.121C-15.1596 189.175 43.8803 201.185 67.808 198.251C68.5099 198.16 69.2232 198.219 69.9 198.427C70.5768 198.634 71.2013 198.984 71.7313 199.453C72.2613 199.923 72.6845 200.5 72.9724 201.147C73.2603 201.793 73.4063 202.494 73.4003 203.202C73.1558 225.877 81.6206 248.154 98.7947 270.034C100.419 272.104 102.492 273.777 104.86 274.927C107.228 276.077 109.828 276.675 112.466 276.675C115.103 276.675 117.71 276.077 120.09 274.927C122.469 273.777 124.561 272.104 126.206 270.034C128.625 267.026 131.438 263.831 134.385 260.486C145.624 247.726 158.793 232.776 159.302 217.595C159.79 203.294 165.658 200.574 176.903 209.436C196.156 224.593 215.805 228.749 235.852 221.904C254.921 215.395 263.263 199.351 258.771 179.916C253.515 157.425 239.427 143.092 216.508 136.92C205.568 133.925 205.018 129.585 214.858 123.901C234.018 112.808 257.763 79.8048 245.02 57.0689C237.808 44.2341 226.317 38.7946 210.549 40.7503C187.387 43.6227 170.886 52.606 161.046 67.7001L161.045 67.7001L161.044 67.7026C161.044 67.7018 161.045 67.701 161.046 67.7001L175.897 72.5589C184.496 75.389 190.914 73.3 195.152 66.2918C190.914 73.3027 184.495 75.3928 175.895 72.5623L161.043 67.7034L148.21 90.6193L147.66 101.621C147.56 103.312 147.307 104.505 146.901 105.202C147.306 104.505 147.558 103.312 147.659 101.624ZM146.901 105.202C146.075 106.624 144.617 105.981 142.525 103.274C141.608 102.052 140.752 100.799 139.958 99.5153C138.308 97.0095 137.635 94.1981 137.941 91.081C138.552 84.9692 138.735 78.8574 138.491 72.7457C138.369 68.9563 136.443 66.6644 132.715 65.8699C119.819 62.9362 111.141 54.9297 106.679 41.8505C105.64 38.6724 103.592 37.7861 100.537 39.1919C98.7717 39.973 97.4656 41.0693 96.6184 42.4805C97.4655 41.0677 98.7722 39.9703 100.539 39.1885C103.594 37.7828 105.642 38.669 106.681 41.8472C111.142 54.9264 119.821 62.9329 132.717 65.8666C136.445 66.6611 138.371 68.953 138.493 72.7423C138.737 78.8541 138.554 84.9659 137.943 91.0777C137.637 94.1947 138.309 97.0061 139.96 99.512C140.754 100.795 141.61 102.048 142.527 103.271C144.617 105.976 146.075 106.62 146.901 105.202ZM96.5196 42.6501C95.6499 44.1907 95.3081 46.0939 95.4943 48.3595C95.6212 49.9142 95.3694 51.2547 94.7387 52.3811C95.3707 51.254 95.6233 49.9124 95.4962 48.3562C95.3102 46.0922 95.6513 44.1901 96.5196 42.6501ZM94.6643 52.51C94.0784 53.4941 93.1945 54.3098 92.0126 54.957C90.1791 55.9349 88.4678 55.721 86.8787 54.3153C85.681 53.3315 84.1698 52.816 82.6319 52.8667C81.094 52.9174 79.6365 53.5307 78.5361 54.5903C77.8552 55.244 77.3048 55.9204 76.8848 56.6196C77.3045 55.9216 77.8543 55.2462 78.5342 54.5936C79.6346 53.534 81.0921 52.9207 82.63 52.87C84.1678 52.8193 85.6791 53.3348 86.8768 54.3186C88.4659 55.7243 90.1772 55.9382 92.0107 54.9603C93.1939 54.3124 94.0784 53.4956 94.6643 52.51ZM76.7763 56.8057C75.4252 59.1972 75.5833 61.8518 77.2507 64.7697C81.7207 72.4746 81.9173 79.8398 77.8408 86.8654C77.6817 87.1393 77.5163 87.4128 77.3443 87.6857C77.2731 87.7972 77.2043 87.9102 77.138 88.0244C76.5654 89.0094 76.1734 90.0899 75.9818 91.215C75.7681 92.4694 75.8077 93.7539 76.0982 94.9927C76.3887 96.2316 76.9242 97.3997 77.6732 98.4284C78.4222 99.457 79.3695 100.325 80.4593 100.982C85.2876 103.855 89.7188 107.125 93.7526 110.792C99.4945 115.941 101.835 119.433 100.773 121.267C99.752 123.023 95.6095 123.258 88.3455 121.973C72.8482 119.269 62.3955 122.582 56.9871 131.914C56.0384 133.55 55.2449 135.371 54.6065 137.378C54.3828 138.11 54.0881 138.791 53.7223 139.422C52.9888 140.685 51.9701 141.744 50.6662 142.6C48.7617 143.857 47.2993 145.31 46.2791 146.959C47.2993 145.311 48.761 143.86 50.6643 142.603C51.9694 141.747 52.9887 140.686 53.7223 139.422C54.089 138.79 54.3843 138.108 54.6084 137.375C55.2464 135.369 56.0393 133.549 56.9871 131.914C62.396 122.585 72.8482 119.272 88.3435 121.976C95.6121 123.262 99.7552 123.026 100.773 121.267C101.839 119.433 99.4999 115.94 93.7545 110.788C89.7207 107.121 85.2896 103.851 80.4612 100.979C79.3714 100.322 78.4241 99.4537 77.6751 98.4251C76.9261 97.3964 76.3906 96.2282 76.1001 94.9894C75.8096 93.7506 75.77 92.4661 75.9837 91.2117C76.1751 90.0878 76.5665 89.0085 77.138 88.0244C77.2037 87.9113 77.2718 87.7995 77.3423 87.689C77.515 87.415 77.6812 87.1404 77.8408 86.8654C81.9193 79.8388 81.7233 72.4725 77.2526 64.7664C75.586 61.8499 75.4272 59.1963 76.7763 56.8057ZM45.9756 147.478C44.0191 151.035 44.0235 155.461 45.9888 160.755C48.5558 167.784 53.4453 172.276 60.6572 174.232C76.1812 178.571 90.3605 174.66 103.195 162.497C103.478 162.245 103.816 162.063 104.183 161.967C104.55 161.872 104.934 161.865 105.304 161.947L110.438 162.956C111.573 163.24 111.891 163.813 111.392 164.677C111.354 164.742 111.312 164.809 111.265 164.878L90.4541 195.498C90.376 195.613 90.3003 195.73 90.2267 195.848C90.2997 195.731 90.3748 195.615 90.4522 195.501L111.263 164.881C111.311 164.811 111.354 164.743 111.392 164.677C111.894 163.811 111.576 163.237 110.44 162.952L105.306 161.944C104.936 161.861 104.552 161.868 104.185 161.964C103.818 162.06 103.48 162.241 103.197 162.494C90.3624 174.657 76.1831 178.568 60.6591 174.229C53.4472 172.273 48.5577 167.781 45.9908 160.752C44.0261 155.46 44.021 151.035 45.9756 147.478ZM89.9562 196.304C88.7983 198.366 88.304 200.74 88.556 203.097C88.8415 205.767 90.066 208.242 92.0107 210.078C98.8356 216.523 97.5584 222.011 96.106 228.251C95.4513 231.064 94.761 234.03 94.761 237.306C94.761 242.134 97.0835 243.937 101.728 242.715C110.102 240.514 117.925 240.576 125.198 242.898C128.566 243.978 130.912 243.456 132.236 241.332C130.911 243.453 128.566 243.974 125.2 242.895C117.927 240.572 110.104 240.511 101.73 242.711C97.0854 243.934 94.763 242.131 94.763 237.302C94.763 234.027 95.4532 231.061 96.1079 228.248C97.5603 222.008 98.8375 216.52 92.0126 210.074C90.0679 208.238 88.8434 205.764 88.5579 203.094C88.3061 200.738 88.7996 198.365 89.9562 196.304ZM132.388 241.073C132.856 240.226 133.18 239.153 133.359 237.853C133.714 235.186 134.399 232.918 135.412 231.05C134.398 232.919 133.713 235.188 133.357 237.856C133.178 239.155 132.855 240.227 132.388 241.073ZM135.763 230.44C137.917 226.913 141.362 224.954 146.1 224.563C148.792 224.318 150.644 223.383 151.656 221.758C150.644 223.381 148.792 224.315 146.102 224.559C141.363 224.951 137.916 226.911 135.763 230.44ZM151.806 221.501C152.452 220.32 152.69 218.803 152.519 216.95L148.669 176.796C148.325 173.223 148.497 170.822 149.183 169.592C148.495 170.821 148.323 173.224 148.667 176.799L152.517 216.954C152.688 218.804 152.451 220.32 151.806 221.501ZM149.226 169.517C150.393 167.575 152.957 168.81 156.918 173.224L172.503 190.459C174.826 193.026 177.729 194.493 181.212 194.859C196.492 196.326 210.824 193.27 224.209 185.692C225.619 184.893 226.804 183.751 227.655 182.373C227.704 182.294 227.751 182.215 227.797 182.135C228.562 180.814 229.002 179.329 229.08 177.801C229.162 176.183 228.835 174.571 228.128 173.113C227.421 171.655 226.357 170.399 225.036 169.461C217.763 164.389 213.362 157.36 211.834 148.376C211.548 146.655 210.705 145.074 209.432 143.867C208.16 142.661 206.526 141.894 204.775 141.683L188.548 139.941C179.715 138.939 176.032 137.171 177.499 134.636C178.45 132.997 181.552 131.039 186.805 128.76C190.349 127.171 194.047 125.918 197.898 125.001C200.162 124.401 201.832 123.171 202.909 121.313C203.257 120.712 203.543 120.046 203.767 119.314C205.356 113.977 207.504 108.973 210.212 104.301C207.503 108.974 205.354 113.979 203.765 119.317C203.541 120.048 203.256 120.713 202.909 121.313C201.832 123.169 200.162 124.398 197.9 124.998C194.049 125.915 190.351 127.168 186.807 128.757C181.55 131.037 178.448 132.997 177.499 134.636C176.026 137.173 179.709 138.942 188.547 139.945L204.773 141.687C206.524 141.898 208.158 142.664 209.43 143.87C210.703 145.077 211.546 146.659 211.832 148.379C213.36 157.363 217.761 164.392 225.034 169.465C226.355 170.402 227.419 171.658 228.126 173.116C228.833 174.574 229.16 176.187 229.078 177.805C229 179.331 228.561 180.815 227.797 182.135C227.752 182.214 227.705 182.292 227.657 182.369C226.806 183.748 225.621 184.89 224.211 185.688C210.826 193.267 196.494 196.323 181.214 194.856C177.731 194.489 174.827 193.023 172.505 190.456L156.92 173.22C152.957 168.804 150.392 167.57 149.226 169.517ZM210.766 103.362C214.648 96.9102 219.618 91.1051 225.676 85.9471C227.036 84.7858 228.002 83.743 228.575 82.8186C228.002 83.7422 227.036 84.7839 225.678 85.9438C219.619 91.1027 214.648 96.9089 210.766 103.362ZM228.678 82.6467C230.22 79.9728 228.364 78.3215 223.111 77.6929C215.165 76.7761 211.04 72.07 210.734 63.5746C210.612 60.4576 208.992 58.6852 205.875 58.2574C201.987 57.7097 199.104 59.0516 197.228 62.2833C197.01 62.6588 196.805 63.0597 196.614 63.4863C196.331 64.1157 196.034 64.7162 195.725 65.2879C196.035 64.7152 196.332 64.1136 196.616 63.4829C196.806 63.0577 197.01 62.6578 197.228 62.2833C199.104 59.054 201.986 57.7132 205.873 58.2607C208.99 58.6885 210.61 60.4609 210.732 63.578C211.038 72.0733 215.163 76.7794 223.109 77.6962C228.36 78.3246 230.216 79.9747 228.678 82.6467ZM130.058 118.031C131.159 118.581 131.77 119.436 131.892 120.598C132.009 121.515 132.407 122.373 133.03 123.056C133.653 123.738 134.471 124.212 135.373 124.413C136.276 124.613 137.218 124.531 138.071 124.176C138.925 123.821 139.648 123.212 140.143 122.431C142.527 118.642 145.888 116.931 150.227 117.297C153.711 117.603 155.117 119.498 154.445 122.981L150.411 143.425C150.105 144.986 149.388 146.435 148.331 147.625C147.275 148.814 145.919 149.701 144.399 150.195C142.88 150.689 141.253 150.772 139.684 150.437C138.114 150.101 136.66 149.358 135.467 148.284L119.424 133.708C118.423 132.787 117.789 131.532 117.637 130.17C117.486 128.807 117.827 127.428 118.599 126.282L122.816 119.864C124.65 117.114 127.064 116.503 130.058 118.031Z" fill="#F48D6E"/>
</svg>
