<svg width="169" height="279" viewBox="0 0 169 279" fill="none" xmlns="http://www.w3.org/2000/svg">
<path d="M95.0061 3.44335C108.383 53.1395 132.49 101.659 168.026 137.02C168.388 137.38 168.661 137.818 168.824 138.301C168.988 138.784 169.038 139.298 168.971 139.803C168.903 140.308 168.72 140.791 168.435 141.214C168.15 141.636 167.771 141.988 167.328 142.24C118.489 170.764 107.501 225.569 95.0797 276.478C94.9082 277.164 94.5652 277.74 94.0507 278.206C92.5563 279.505 91.4783 279.21 90.8168 277.324C73.5081 228.105 38.4495 181.35 0.855359 144.372C0.584247 144.102 0.369192 143.781 0.222391 143.428C0.0755904 143.075 0 142.696 0 142.313C0 141.931 0.0755904 141.552 0.222391 141.199C0.369192 140.845 0.584247 140.525 0.855359 140.255C21.7778 119.695 40.1033 97.3098 55.8319 73.0989C69.576 51.9633 78.2119 26.4168 87.8034 2.56114C88.1579 1.70742 88.8089 1.00419 89.6408 0.576264C92.3602 -0.747007 94.1487 0.208684 95.0061 3.44335Z" fill="#DE7521"/>
</svg>
