<svg width="295" height="298" viewBox="0 0 295 298" fill="none" xmlns="http://www.w3.org/2000/svg">
<path d="M189.763 99.2245C190.766 98.8901 191.571 98.2667 192.179 97.3546C202.696 81.2394 212.499 66.6142 221.588 53.4789C235.722 33.0461 260.115 28.0748 279.857 43.1257C299.052 57.7661 298.049 90.0115 287.653 108.209C271.422 136.624 248.397 144.104 219.126 152.085C211.648 154.092 209.733 161.252 214.52 167.182C221.694 175.938 229.673 182.962 238.457 188.253C257.379 199.655 271.194 208.549 273.747 233.679C275.753 254.112 265.814 284.168 242.789 289.596C215.706 295.935 189.444 283.028 176.313 258.399C169.99 246.541 163.896 235.169 158.029 224.284C147.041 203.942 128.348 216.029 119.776 229.939C110.08 245.629 100.642 260.816 91.462 275.503C77.2823 298.17 47.646 306.152 26.8551 287.999C4.83315 268.752 10.2134 235.549 23.9828 213.201C33.1016 198.363 45.883 183.038 62.3273 167.227C62.7106 166.851 62.9831 166.376 63.1138 165.854C63.2444 165.333 63.2281 164.787 63.0666 164.279C62.9051 163.771 62.6049 163.32 62.2001 162.978C61.7954 162.637 61.3024 162.418 60.7771 162.347C50.868 160.857 40.047 159.382 28.3142 157.923C4.51403 154.913 -8.66261 135.164 6.42904 113.683C18.861 95.9559 36.4452 89.4186 59.1815 94.0707C72.8597 96.8377 87.1609 100.532 102.085 105.154C103.558 105.597 105.135 105.536 106.565 104.983C107.995 104.429 109.195 103.413 109.973 102.098C114.897 93.8427 103.18 72.4521 98.1644 65.3828C79.6532 39.4314 79.4708 -1.16042 121.509 0.0254078C134.153 0.390278 145.567 2.82274 155.75 7.32281C171.753 14.4378 179.185 35.281 180.325 51.1984C181.267 64.8203 182.377 79.4607 183.653 95.1197C183.988 99.0117 186.024 100.38 189.763 99.2245Z" fill="#F7C7DF"/>
</svg>
