<svg width="298" height="299" viewBox="0 0 298 299" fill="none" xmlns="http://www.w3.org/2000/svg">
<path d="M189.359 232.939C164.746 210.413 143.122 243.525 134.562 262.81C124.488 285.582 98.5228 310.981 71.7797 292.804C43.6033 273.683 84.4345 239.176 97.4989 226.251C117.73 206.35 86.1137 197.159 72.5578 194.574C58.8519 191.948 45.8148 189.281 33.4467 186.573C15.7272 182.689 4.87435 172.883 0.888149 157.154C-3.16631 141.07 7.11319 128.76 22.5119 125.108C45.4872 119.61 75.8342 121.785 92.2568 140.331C97.7037 146.404 111.219 160.847 120.269 158.016C138.985 152.107 128.993 123.877 122.645 112.307C107.492 84.7335 73.2131 30.572 112.693 6.15833C121.048 0.988379 130.139 -0.926425 139.968 0.413934C188.622 6.97896 178.916 62.7817 179.489 96.5915C179.626 103.567 182.643 108.737 188.54 112.101C189.741 112.785 190.983 112.854 192.267 112.307C209.508 104.716 211.966 72.1368 222.818 57.5296C238.668 36.2343 269.834 26.633 288.673 49.2413C304.604 68.3209 298.215 100.448 283.84 118.543C276.55 127.707 268.359 135.927 259.268 143.203C197.959 192.195 310.87 225.307 276.018 278.812C268.974 289.672 258.148 294.335 243.541 292.804C207.42 289.029 210.573 252.388 189.359 232.939Z" fill="#02553D"/>
</svg>
